<svg xmlns="http://www.w3.org/2000/svg" xmlns:xlink="http://www.w3.org/1999/xlink" width="1000" zoomAndPan="magnify" viewBox="0 0 750 749.999995" height="1000" preserveAspectRatio="xMidYMid meet" version="1.0"><path fill="#d9fc67" d="M 446.597656 37.835938 L 448.054688 37.816406 C 450.28125 37.796875 452.511719 37.78125 454.742188 37.769531 C 455.90625 37.765625 457.066406 37.753906 458.230469 37.738281 C 469.300781 37.574219 479.59375 38.957031 490 42.917969 L 491.535156 43.492188 C 493.664062 44.335938 495.613281 45.269531 497.496094 46.578125 C 498.378906 47.140625 498.378906 47.140625 499.617188 47.613281 C 501.722656 48.492188 503.644531 49.683594 505.597656 50.859375 L 506.761719 51.542969 L 507.863281 52.203125 L 508.863281 52.800781 L 509.582031 53.332031 L 509.582031 54.167969 L 511.25 54.167969 L 511.25 55 L 511.945312 55.308594 C 515.226562 57.082031 518.441406 60.058594 520.832031 62.917969 L 520.832031 63.75 L 521.589844 64.089844 C 522.5 64.582031 523.089844 65.039062 523.75 65.832031 L 523.75 66.667969 L 524.582031 66.667969 C 525.269531 67.476562 525.929688 68.3125 526.5625 69.167969 L 527.125 69.914062 C 527.496094 70.410156 527.867188 70.902344 528.234375 71.398438 C 528.679688 71.984375 529.125 72.566406 529.578125 73.140625 L 530.261719 74.011719 L 530.847656 74.757812 L 531.25 75.417969 L 531.25 76.667969 L 532.082031 76.667969 L 532.800781 77.949219 L 533.777344 79.6875 L 534.285156 80.601562 C 535.085938 82.023438 535.890625 83.445312 536.730469 84.84375 C 536.992188 85.28125 537.253906 85.722656 537.527344 86.171875 L 538.242188 87.351562 C 538.75 88.332031 538.75 88.332031 538.75 89.582031 L 539.613281 89.554688 C 545.988281 89.441406 552.324219 89.964844 558.476562 91.667969 C 559.949219 92.070312 561.417969 92.386719 562.917969 92.683594 C 570.96875 94.378906 578.5625 97.460938 585.832031 101.25 C 586.386719 101.53125 586.945312 101.808594 587.5 102.082031 L 587.5 102.917969 L 588.394531 103.03125 C 589.824219 103.394531 590.742188 104.003906 591.953125 104.84375 L 593.28125 105.757812 L 594.582031 106.667969 L 595.703125 107.433594 C 600.808594 110.949219 600.808594 110.949219 602.5 112.5 L 602.5 113.332031 L 603.160156 113.59375 C 604.605469 114.417969 605.742188 115.507812 606.953125 116.640625 L 607.738281 117.371094 C 609.644531 119.179688 611.324219 121.066406 612.941406 123.140625 C 613.65625 124.046875 614.398438 124.886719 615.183594 125.730469 C 619.21875 130.324219 622.148438 135.875 625 141.25 L 625.425781 142.050781 C 632.542969 155.554688 636.492188 171.597656 636.292969 186.886719 C 636.230469 188.386719 636.050781 189.839844 635.832031 191.328125 L 635.597656 192.960938 L 635.417969 194.167969 C 635.714844 194.273438 636.011719 194.382812 636.316406 194.496094 C 638.386719 195.378906 640.203125 196.6875 642.082031 197.917969 L 642.9375 198.449219 C 643.5 198.804688 644.042969 199.191406 644.582031 199.582031 L 644.582031 200.417969 L 645.808594 200.753906 L 647.082031 201.25 L 647.5 202.5 C 648.046875 202.796875 648.601562 203.074219 649.167969 203.332031 C 649.835938 203.804688 650.496094 204.289062 651.144531 204.792969 L 652.15625 205.558594 L 652.917969 206.25 L 652.917969 207.082031 L 653.652344 207.410156 C 654.660156 207.957031 655.339844 208.5625 656.144531 209.375 L 656.921875 210.144531 L 657.5 210.832031 L 657.5 211.667969 L 658.308594 212.003906 L 659.167969 212.5 L 659.582031 213.75 L 660.417969 213.75 C 661.03125 214.433594 661.621094 215.136719 662.1875 215.859375 C 663.253906 217.199219 664.320312 218.523438 665.46875 219.792969 C 667.070312 221.652344 668.308594 223.742188 669.582031 225.832031 L 670.023438 226.550781 C 673.175781 231.671875 676.246094 236.839844 678.332031 242.5 L 678.851562 243.796875 C 679.855469 246.328125 680.710938 248.835938 681.382812 251.472656 C 681.671875 252.601562 681.671875 252.601562 682.292969 254.035156 C 683.25 256.480469 683.585938 259.121094 684.027344 261.703125 C 684.144531 262.382812 684.277344 263.058594 684.414062 263.734375 C 685.214844 267.867188 685.296875 272.054688 685.417969 276.25 L 685.453125 277.386719 C 685.757812 288.074219 683.742188 298.402344 681.25 308.75 L 682.253906 309.632812 L 683.542969 310.78125 L 684.203125 311.363281 C 684.761719 311.863281 685.300781 312.386719 685.832031 312.917969 L 685.832031 313.75 L 686.667969 313.75 L 686.667969 314.582031 L 687.5 314.582031 C 688.027344 315.140625 688.027344 315.140625 688.621094 315.929688 L 689.289062 316.804688 L 690 317.761719 L 690.730469 318.730469 C 697.96875 328.363281 704.621094 338.628906 708.261719 350.207031 C 708.730469 351.679688 708.730469 351.679688 709.371094 353.101562 C 710.046875 354.695312 710.5625 356.28125 711.042969 357.941406 L 711.3125 358.878906 C 712.546875 363.199219 713.378906 367.601562 714.167969 372.019531 C 714.4375 373.554688 714.4375 373.554688 715 375 C 715.085938 376.121094 715.15625 377.234375 715.207031 378.359375 C 715.296875 380.214844 715.402344 382.050781 715.632812 383.890625 C 717.425781 399.335938 714.824219 418.207031 708.8125 432.566406 C 708.34375 433.726562 707.917969 434.898438 707.496094 436.078125 C 704.925781 443.175781 701.269531 449.972656 697.082031 456.25 L 696.25 456.25 L 696.144531 456.925781 C 695.722656 458.265625 694.964844 459.285156 694.167969 460.417969 L 693.4375 461.503906 L 692.65625 462.65625 C 692.410156 463.019531 692.164062 463.382812 691.910156 463.757812 C 691.691406 464.03125 691.472656 464.304688 691.25 464.582031 L 690.417969 464.582031 L 690.171875 465.4375 C 689.355469 467.148438 688.15625 468.332031 686.847656 469.6875 L 686.058594 470.519531 C 685.292969 471.320312 684.523438 472.121094 683.75 472.917969 L 683.121094 473.570312 C 680.902344 475.890625 680.902344 475.890625 680 476.667969 L 679.167969 476.667969 L 678.332031 478.332031 L 677.5 478.332031 L 677.5 479.167969 C 676.890625 479.796875 676.890625 479.796875 676.09375 480.46875 L 675.304688 481.148438 L 674.582031 481.667969 L 673.75 481.667969 L 674.160156 482.933594 C 677.171875 492.304688 677.171875 492.304688 677.082031 496.667969 C 677.332031 497.648438 677.609375 498.621094 677.917969 499.582031 C 680.898438 510.21875 679.785156 524.382812 677.082031 535 C 676.945312 535.609375 676.808594 536.21875 676.675781 536.828125 C 675.3125 542.863281 673.648438 548.671875 670.945312 554.257812 C 670.484375 555.269531 670.082031 556.28125 669.683594 557.324219 C 668.691406 559.828125 667.441406 562.167969 666.144531 564.53125 L 665.414062 565.871094 C 663.746094 568.890625 662.039062 571.800781 660 574.582031 L 659.410156 575.390625 C 657.960938 577.359375 656.5 579.320312 655 581.25 L 654.414062 582.003906 C 653.933594 582.601562 653.429688 583.179688 652.917969 583.75 L 652.082031 583.75 L 651.761719 584.480469 C 651.199219 585.511719 650.566406 586.207031 649.738281 587.039062 L 648.847656 587.933594 L 647.917969 588.855469 L 646.984375 589.796875 L 646.09375 590.683594 L 645.277344 591.496094 L 644.582031 592.082031 L 643.75 592.082031 L 643.75 592.917969 L 642.917969 592.917969 C 642.824219 593.15625 642.734375 593.398438 642.640625 593.644531 C 641.90625 594.878906 641.023438 595.441406 639.84375 596.25 C 638.363281 597.273438 637.089844 598.296875 635.832031 599.582031 L 634.582031 600.417969 L 633.332031 600.417969 L 633.332031 601.25 C 632.648438 601.789062 632.648438 601.789062 631.746094 602.34375 L 630.851562 602.90625 C 630 603.332031 630 603.332031 628.75 603.332031 L 628.75 604.167969 C 627.714844 604.886719 627.714844 604.886719 626.355469 605.675781 L 625.007812 606.472656 C 623.75 607.082031 623.75 607.082031 622.082031 607.082031 L 622.082031 607.917969 C 620.304688 608.757812 618.519531 609.59375 616.730469 610.417969 C 616.152344 610.6875 615.574219 610.953125 614.996094 611.222656 C 611.042969 613.066406 607.097656 614.453125 602.894531 615.605469 C 601.71875 615.9375 600.5625 616.316406 599.402344 616.691406 C 596.042969 617.738281 592.605469 618.441406 589.167969 619.167969 L 588.996094 619.984375 C 587.433594 627.109375 585.632812 634.226562 582.5 640.832031 C 582.199219 641.53125 581.902344 642.226562 581.601562 642.925781 C 580.882812 644.605469 580.144531 646.273438 579.402344 647.941406 L 578.917969 649.042969 C 578.035156 651.027344 577.078125 652.796875 575.832031 654.582031 C 575.488281 655.238281 575.148438 655.898438 574.816406 656.5625 C 570.503906 664.550781 564.160156 671.789062 557.917969 678.332031 L 557.007812 679.304688 L 556.25 680 L 555.417969 680 L 555.417969 680.832031 L 554.582031 680.832031 L 554.582031 681.667969 C 554.015625 682.253906 554.015625 682.253906 553.203125 682.941406 L 552.289062 683.71875 C 550.425781 685.269531 548.558594 686.816406 546.667969 688.332031 L 545.75 689.070312 L 545 689.582031 L 544.167969 689.582031 L 544.167969 690.417969 C 543.398438 691.007812 543.398438 691.007812 542.324219 691.6875 L 541.132812 692.441406 L 539.871094 693.230469 L 538.660156 693.996094 C 534.605469 696.554688 530.425781 698.804688 526.09375 700.859375 L 524.941406 701.40625 C 522.085938 702.746094 519.222656 703.945312 516.25 705 L 514.757812 705.542969 C 513.3125 706.0625 511.867188 706.578125 510.417969 707.082031 L 509.550781 707.386719 C 507.234375 708.179688 504.902344 708.816406 502.527344 709.402344 L 501.480469 709.664062 C 482.039062 714.480469 460.535156 714.402344 441.246094 708.996094 C 439.863281 708.585938 438.539062 708.085938 437.21875 707.507812 C 436.0625 707 434.882812 706.578125 433.699219 706.144531 C 424.71875 702.699219 416.945312 697.359375 409.582031 691.25 L 408.691406 690.515625 C 406.269531 688.464844 403.835938 686.257812 402.5 683.332031 L 401.667969 683.332031 L 401.667969 682.5 L 400.832031 682.5 C 400.296875 681.890625 400.296875 681.890625 399.738281 681.09375 L 399.175781 680.304688 L 398.75 679.582031 L 398.75 678.75 L 397.917969 678.75 L 397.082031 676.667969 L 396.25 676.667969 C 394.707031 673.886719 393.226562 671.085938 391.820312 668.234375 C 391.488281 667.5625 391.148438 666.894531 390.796875 666.230469 C 385.847656 656.914062 384.871094 646.859375 384.894531 636.535156 L 384.890625 633.707031 C 384.886719 631.113281 384.890625 628.519531 384.894531 625.929688 C 384.894531 623.398438 384.894531 620.867188 384.890625 618.339844 C 384.886719 613.105469 384.886719 607.867188 384.890625 602.632812 C 384.890625 597.328125 384.890625 592.027344 384.890625 586.722656 L 384.890625 581.609375 C 384.886719 568.898438 384.882812 556.183594 384.886719 543.472656 L 384.886719 541.1875 C 384.890625 525.835938 384.890625 510.484375 384.886719 495.132812 L 384.886719 468.007812 C 384.886719 455.464844 384.886719 442.925781 384.886719 430.382812 L 384.886719 429.148438 L 384.890625 409.332031 C 384.898438 376.527344 384.898438 343.726562 384.886719 310.925781 L 384.886719 309.691406 C 384.886719 288.105469 384.882812 266.546875 384.886719 245.007812 L 384.890625 233.433594 C 384.890625 221.949219 384.890625 210.460938 384.886719 198.976562 L 384.886719 196.695312 C 384.882812 182.65625 384.886719 168.617188 384.890625 154.582031 L 384.890625 153.570312 C 384.890625 148.28125 384.890625 142.992188 384.890625 137.703125 C 384.886719 132.5 384.886719 127.300781 384.890625 122.097656 C 384.894531 119.316406 384.894531 116.535156 384.890625 113.753906 C 384.886719 111.222656 384.890625 108.6875 384.894531 106.15625 C 384.894531 105.25 384.894531 104.339844 384.890625 103.429688 C 384.878906 97.367188 384.945312 91.382812 386.796875 85.546875 L 387.070312 84.652344 C 387.886719 82.058594 388.875 79.558594 390 77.082031 L 390.6875 75.574219 C 391.285156 74.269531 391.890625 72.964844 392.5 71.667969 L 393.332031 71.667969 L 393.566406 70.675781 C 394.402344 68.570312 395.628906 66.738281 397.082031 65 L 397.917969 65 L 398.253906 64.269531 C 398.761719 63.308594 399.292969 62.492188 400 61.667969 L 400.832031 61.667969 L 401.160156 60.945312 C 401.714844 59.914062 402.355469 59.109375 403.125 58.230469 L 403.894531 57.335938 L 404.582031 56.667969 L 405.417969 56.667969 L 405.417969 55.832031 C 406.101562 55.21875 406.101562 55.21875 407.003906 54.558594 L 407.898438 53.890625 C 408.75 53.332031 408.75 53.332031 410 52.917969 L 410 52.082031 C 410.609375 51.613281 410.609375 51.613281 411.464844 51.101562 L 412.414062 50.527344 C 412.75 50.328125 413.089844 50.128906 413.4375 49.921875 L 414.476562 49.300781 C 415.167969 48.886719 415.859375 48.476562 416.550781 48.066406 C 417.34375 47.59375 418.136719 47.109375 418.921875 46.621094 C 421.8125 44.859375 424.738281 43.644531 427.917969 42.5 C 428.4375 42.292969 428.957031 42.085938 429.476562 41.875 C 433.601562 40.226562 437.730469 39.191406 442.082031 38.332031 L 443.074219 38.109375 C 444.265625 37.898438 445.386719 37.851562 446.597656 37.835938 M 425.832031 67.917969 L 424.46875 68.800781 C 423.023438 69.761719 423.023438 69.761719 421.667969 70.832031 L 421.667969 71.667969 L 420.96875 71.953125 C 419.714844 72.660156 418.828125 73.5625 417.8125 74.582031 L 416.6875 75.703125 L 415.832031 76.667969 L 415.832031 77.5 L 415 77.5 C 414.296875 78.433594 413.628906 79.386719 412.996094 80.363281 L 412.425781 81.230469 C 411.027344 83.382812 409.777344 85.558594 408.75 87.917969 L 408.378906 88.734375 C 406.261719 93.808594 406.527344 99.414062 406.496094 104.804688 C 406.488281 105.640625 406.476562 106.480469 406.46875 107.320312 C 406.449219 109.550781 406.433594 111.78125 406.417969 114.011719 C 406.402344 115.855469 406.386719 117.695312 406.371094 119.535156 C 406.273438 130.488281 406.195312 141.445312 406.265625 152.398438 C 406.285156 156.257812 406.222656 160.0625 405.882812 163.90625 L 405.832031 165 L 406.25 165.417969 C 407.03125 165.457031 407.8125 165.46875 408.59375 165.464844 L 410.136719 165.46875 L 411.84375 165.464844 L 413.628906 165.464844 C 415.25 165.464844 416.871094 165.460938 418.492188 165.457031 C 420.183594 165.457031 421.875 165.457031 423.570312 165.457031 C 426.777344 165.453125 429.980469 165.449219 433.1875 165.445312 C 436.839844 165.441406 440.488281 165.441406 444.136719 165.4375 C 451.648438 165.433594 459.15625 165.425781 466.667969 165.417969 L 467.246094 164.21875 L 468.023438 162.640625 L 468.40625 161.855469 C 470.347656 157.917969 473.203125 154.765625 476.667969 152.082031 C 477.621094 151.460938 478.566406 150.9375 479.582031 150.417969 L 479.582031 149.582031 L 480.417969 149.453125 C 481.429688 149.222656 482.292969 148.945312 483.253906 148.566406 C 489.210938 146.308594 495.367188 146.40625 501.59375 147.332031 C 503.316406 147.652344 504.933594 148.199219 506.5625 148.832031 C 507.53125 149.238281 507.53125 149.238281 508.75 149.167969 L 508.75 150 L 509.46875 150.367188 C 514.308594 152.9375 517.4375 156.578125 520.371094 161.175781 C 520.8125 162.042969 521.148438 162.898438 521.488281 163.808594 L 521.828125 164.71875 L 522.082031 165.417969 L 523.265625 165.425781 C 526.949219 165.449219 530.632812 165.476562 534.320312 165.515625 C 536.210938 165.535156 538.105469 165.550781 540 165.5625 C 541.828125 165.570312 543.660156 165.589844 545.488281 165.609375 C 546.183594 165.617188 546.878906 165.621094 547.578125 165.625 C 548.554688 165.628906 549.535156 165.640625 550.511719 165.652344 L 551.378906 165.652344 C 553.453125 165.691406 554.839844 166.175781 556.667969 167.082031 C 558.34375 168.160156 559.308594 169.441406 560.371094 171.085938 C 561.949219 174.480469 561.785156 177.964844 561.773438 181.632812 L 561.777344 183.511719 C 561.78125 185.210938 561.78125 186.90625 561.777344 188.605469 C 561.777344 190.386719 561.777344 192.167969 561.78125 193.953125 C 561.78125 196.949219 561.78125 199.945312 561.773438 202.941406 C 561.769531 206.390625 561.773438 209.84375 561.777344 213.292969 C 561.78125 216.265625 561.78125 219.238281 561.777344 222.210938 C 561.777344 223.984375 561.777344 225.753906 561.78125 227.523438 C 561.78125 229.191406 561.78125 230.859375 561.777344 232.53125 C 561.773438 233.136719 561.773438 233.746094 561.777344 234.351562 C 561.804688 243.894531 561.804688 243.894531 560.195312 247.113281 C 559.160156 248.769531 558.199219 249.917969 556.476562 250.855469 C 554.367188 251.878906 552.328125 252.042969 550.011719 252.183594 L 548.644531 252.277344 C 542.964844 252.632812 537.28125 252.609375 531.59375 252.589844 C 529.949219 252.585938 528.308594 252.585938 526.664062 252.585938 C 523.832031 252.585938 521 252.582031 518.164062 252.574219 C 514.066406 252.566406 509.964844 252.5625 505.867188 252.5625 C 499.207031 252.558594 492.546875 252.550781 485.886719 252.539062 L 484.683594 252.539062 L 483.476562 252.535156 C 477.828125 252.527344 472.175781 252.519531 466.523438 252.515625 L 465.316406 252.511719 C 458.667969 252.503906 452.023438 252.5 445.375 252.496094 C 441.285156 252.492188 437.191406 252.488281 433.101562 252.480469 C 430.304688 252.476562 427.507812 252.472656 424.707031 252.46875 C 423.09375 252.46875 421.484375 252.464844 419.871094 252.460938 C 418.121094 252.457031 416.371094 252.457031 414.621094 252.457031 L 413.082031 252.449219 L 411.65625 252.453125 L 410.433594 252.449219 C 408.894531 252.511719 407.363281 252.726562 405.832031 252.917969 L 405.832031 282.917969 L 555 282.917969 L 554.582031 280 L 555.417969 280 L 556.121094 278.6875 C 558.542969 274.230469 560.890625 270.011719 565.222656 267.148438 L 565.832031 266.667969 L 565.832031 265.832031 L 566.535156 265.703125 C 567.53125 265.453125 567.53125 265.453125 568.425781 264.84375 C 569.714844 264.089844 571 263.589844 572.394531 263.074219 C 574.023438 262.574219 574.023438 262.574219 575.417969 261.667969 C 576.230469 261.578125 577.046875 261.511719 577.863281 261.457031 C 579.246094 261.367188 580.351562 261.273438 581.667969 260.832031 C 588.636719 261.261719 594.167969 262.664062 600.152344 266.269531 C 600.875 266.703125 600.875 266.703125 601.828125 267.144531 L 602.5 267.5 C 603.019531 268.386719 603.019531 268.386719 603.332031 269.167969 L 604.167969 269.167969 L 604.480469 269.871094 C 604.976562 270.863281 604.976562 270.863281 605.730469 271.746094 C 608.6875 275.441406 610.859375 279.445312 611.667969 284.167969 C 612.148438 290.898438 611.921875 297.121094 609.019531 303.277344 C 608.433594 304.328125 607.796875 305.28125 607.082031 306.25 L 606.265625 307.386719 C 603.039062 311.613281 599.101562 314.492188 594.222656 316.578125 C 589.121094 318.554688 583.789062 319.21875 578.359375 318.410156 C 577.515625 318.253906 576.675781 318.085938 575.832031 317.917969 L 574.71875 317.746094 C 570.613281 317.085938 567.339844 315.066406 564.035156 312.613281 C 562.492188 311.308594 561.199219 309.84375 559.90625 308.292969 L 559.167969 307.5 L 558.332031 307.5 L 558.203125 306.535156 C 557.992188 305.4375 557.992188 305.4375 557.433594 304.730469 C 556.671875 304.074219 556.671875 304.074219 555.527344 304.015625 L 554.125 304.019531 L 552.511719 304.015625 L 550.742188 304.03125 C 550.117188 304.03125 549.496094 304.03125 548.875 304.03125 C 547.535156 304.035156 546.195312 304.039062 544.855469 304.046875 C 542.730469 304.058594 540.605469 304.066406 538.480469 304.066406 C 535.113281 304.074219 531.742188 304.085938 528.375 304.101562 C 522.363281 304.125 516.351562 304.140625 510.339844 304.15625 C 508.234375 304.160156 506.128906 304.167969 504.023438 304.175781 C 502.699219 304.183594 501.378906 304.1875 500.058594 304.191406 C 499.453125 304.191406 498.847656 304.195312 498.242188 304.199219 C 494.601562 304.222656 491.011719 304.101562 487.382812 303.800781 C 485.96875 303.753906 484.722656 303.867188 483.332031 304.066406 C 481.972656 304.230469 480.625 304.214844 479.261719 304.214844 L 478.328125 304.214844 C 477.304688 304.214844 476.28125 304.210938 475.257812 304.207031 L 473.042969 304.207031 C 471.460938 304.203125 469.878906 304.203125 468.296875 304.199219 C 465.792969 304.191406 463.292969 304.1875 460.789062 304.1875 C 455.484375 304.183594 450.175781 304.175781 444.871094 304.167969 C 439.132812 304.15625 433.394531 304.148438 427.660156 304.144531 C 425.171875 304.140625 422.683594 304.136719 420.195312 304.132812 C 418.648438 304.128906 417.105469 304.128906 415.558594 304.128906 C 414.84375 304.125 414.125 304.125 413.40625 304.121094 C 412.429688 304.121094 411.453125 304.117188 410.476562 304.121094 L 408.816406 304.117188 C 407.488281 304.105469 407.488281 304.105469 406.25 304.582031 L 406.257812 306 C 406.273438 310.183594 406.234375 314.367188 406.144531 318.546875 L 406.113281 320.007812 C 406.070312 322 406.027344 323.996094 405.980469 325.992188 C 405.945312 327.46875 405.914062 328.945312 405.882812 330.421875 L 405.847656 331.800781 L 405.824219 333.058594 L 405.800781 334.167969 L 405.832031 335 L 406.25 335.417969 C 406.96875 335.457031 407.691406 335.464844 408.410156 335.464844 L 409.839844 335.464844 L 411.429688 335.460938 L 413.101562 335.460938 C 414.640625 335.460938 416.179688 335.457031 417.722656 335.453125 C 419.378906 335.449219 421.035156 335.449219 422.695312 335.445312 C 425.570312 335.445312 428.445312 335.441406 431.324219 335.433594 C 435.484375 335.429688 439.648438 335.425781 443.808594 335.421875 C 450.570312 335.417969 457.328125 335.410156 464.085938 335.402344 L 465.3125 335.402344 C 471.054688 335.394531 476.792969 335.386719 482.535156 335.378906 L 483.757812 335.375 L 484.980469 335.375 C 491.707031 335.367188 498.4375 335.359375 505.164062 335.355469 C 509.316406 335.351562 513.464844 335.347656 517.617188 335.339844 C 520.464844 335.332031 523.308594 335.332031 526.15625 335.332031 C 527.796875 335.332031 529.441406 335.328125 531.082031 335.324219 C 532.585938 335.316406 534.09375 335.316406 535.597656 335.320312 C 536.394531 335.320312 537.195312 335.316406 537.992188 335.3125 C 540.808594 335.320312 543.535156 335.433594 546.25 336.25 C 548.296875 337.453125 549.875 339.058594 551.0625 341.121094 C 551.832031 342.976562 552.203125 344.679688 552.109375 346.691406 C 551.738281 348.984375 550.945312 351.03125 549.582031 352.917969 C 548.546875 353.808594 547.484375 354.421875 546.25 355 L 545.207031 355.519531 C 542.726562 356.265625 540.132812 356.3125 537.558594 356.296875 L 536.609375 356.296875 C 535.566406 356.296875 534.527344 356.292969 533.484375 356.289062 L 531.222656 356.289062 C 529.59375 356.289062 527.96875 356.285156 526.339844 356.28125 C 523.722656 356.277344 521.105469 356.273438 518.492188 356.269531 C 514.753906 356.265625 511.015625 356.261719 507.277344 356.257812 C 497.613281 356.246094 487.949219 356.238281 478.285156 356.238281 L 476.839844 356.238281 C 459.878906 356.234375 442.921875 356.296875 425.964844 356.457031 L 424.371094 356.472656 C 418.332031 356.53125 412.289062 356.597656 406.25 356.667969 L 406.25 386.667969 L 614.167969 386.667969 L 617.5 380 C 620.242188 375.988281 620.242188 375.988281 621.554688 374.722656 L 622.082031 374.167969 L 622.082031 373.332031 L 622.839844 372.96875 C 623.832031 372.480469 623.832031 372.480469 625 371.667969 L 625 370.832031 L 625.886719 370.496094 C 627.152344 369.972656 628.359375 369.375 629.582031 368.75 C 633.71875 366.640625 637.984375 365.597656 642.667969 365.726562 C 648.695312 366.316406 653.976562 367.613281 659.035156 371.046875 C 660.003906 371.726562 660.003906 371.726562 661.25 372.082031 L 661.25 372.917969 C 661.714844 373.3125 662.191406 373.695312 662.683594 374.0625 C 665.765625 376.667969 667.910156 380.539062 669.582031 384.167969 C 671.113281 388.433594 672.050781 392.769531 671.484375 397.304688 C 670.34375 403.183594 668.167969 408.625 664.234375 413.171875 C 661.050781 416.722656 657.359375 419.464844 652.917969 421.25 C 646.734375 423.171875 640.507812 423.453125 634.167969 422.082031 C 632.429688 421.515625 630.808594 420.804688 629.167969 420 L 627.96875 419.425781 C 623.742188 417.269531 620.609375 414.308594 617.917969 410.417969 L 617.265625 409.167969 L 616.667969 408.332031 C 614.71875 407.867188 612.78125 407.859375 610.789062 407.863281 L 609.773438 407.863281 C 608.648438 407.859375 607.523438 407.863281 606.402344 407.863281 L 603.960938 407.863281 C 601.722656 407.859375 599.484375 407.859375 597.25 407.863281 C 594.835938 407.863281 592.425781 407.863281 590.011719 407.859375 C 585.28125 407.859375 580.554688 407.859375 575.828125 407.859375 C 571.980469 407.859375 568.132812 407.863281 564.285156 407.859375 L 560.128906 407.859375 C 549.710938 407.859375 539.292969 407.859375 528.875 407.863281 C 519.636719 407.863281 510.394531 407.863281 501.15625 407.863281 C 489.65625 407.855469 478.160156 407.851562 466.660156 407.859375 L 465.007812 407.859375 C 461.171875 407.863281 457.335938 407.859375 453.5 407.859375 C 448.816406 407.859375 444.132812 407.859375 439.449219 407.859375 C 437.0625 407.863281 434.675781 407.863281 432.289062 407.859375 C 430.097656 407.859375 427.90625 407.859375 425.710938 407.863281 C 424.925781 407.863281 424.140625 407.863281 423.355469 407.863281 C 417.644531 407.855469 411.953125 408.046875 406.25 408.332031 L 406.25 409.144531 L 406.253906 410.214844 L 406.253906 411.273438 C 406.261719 415.933594 406.269531 420.59375 406.273438 425.253906 C 406.273438 427.875 406.277344 430.492188 406.28125 433.113281 C 406.285156 435.652344 406.289062 438.1875 406.289062 440.722656 C 406.289062 441.683594 406.292969 442.644531 406.292969 443.601562 C 406.296875 444.964844 406.296875 446.328125 406.296875 447.6875 L 406.300781 448.84375 C 406.296875 453.546875 406.03125 458.207031 405.832031 462.917969 L 443.332031 462.917969 L 442.917969 459.167969 C 443.261719 456.46875 444.527344 454 445.96875 451.722656 C 447.039062 450.359375 447.988281 449.851562 449.582031 449.167969 C 451.574219 448.375 453.382812 448.207031 455.5 448.199219 L 456.511719 448.1875 C 457.609375 448.175781 458.710938 448.167969 459.808594 448.164062 L 460.953125 448.15625 C 462.953125 448.144531 464.953125 448.136719 466.949219 448.132812 C 469.003906 448.128906 471.058594 448.109375 473.113281 448.085938 C 474.699219 448.070312 476.289062 448.066406 477.878906 448.0625 C 478.636719 448.0625 479.394531 448.054688 480.148438 448.042969 C 486.769531 447.953125 486.769531 447.953125 490.003906 449.519531 C 491.59375 450.421875 492.890625 451.296875 493.828125 452.890625 C 495.417969 456.9375 495.125 461.574219 495.109375 465.851562 L 495.113281 467.875 C 495.113281 469.28125 495.113281 470.6875 495.109375 472.09375 C 495.105469 473.886719 495.105469 475.679688 495.113281 477.472656 C 495.113281 478.863281 495.113281 480.253906 495.113281 481.648438 C 495.109375 482.308594 495.113281 482.96875 495.113281 483.628906 C 495.132812 491.519531 495.132812 491.519531 493.714844 494.179688 C 492.886719 495.515625 491.96875 496.421875 490.625 497.238281 C 488.378906 498.28125 486.339844 498.402344 483.890625 498.433594 L 482.9375 498.449219 C 481.902344 498.464844 480.863281 498.480469 479.824219 498.496094 L 477.652344 498.527344 C 476.128906 498.546875 474.609375 498.570312 473.089844 498.589844 C 471.152344 498.613281 469.214844 498.644531 467.277344 498.675781 C 465.777344 498.699219 464.28125 498.722656 462.78125 498.742188 C 462.066406 498.75 461.355469 498.761719 460.640625 498.773438 C 451.613281 498.929688 451.613281 498.929688 447.5 496.667969 L 446.667969 496.667969 L 446.667969 495.832031 L 445.832031 495.832031 L 445.832031 495 L 445 495 L 444.871094 494.296875 C 444.628906 493.292969 444.628906 493.292969 443.945312 492.445312 C 443.148438 490.886719 443.210938 489.515625 443.28125 487.8125 C 443.3125 486.734375 443.332031 485.660156 443.332031 484.582031 L 442.917969 484.167969 C 441.777344 484.128906 440.640625 484.113281 439.503906 484.121094 L 438.417969 484.121094 C 437.230469 484.121094 436.042969 484.121094 434.855469 484.125 L 432.390625 484.128906 C 430.222656 484.128906 428.058594 484.132812 425.890625 484.136719 C 423.679688 484.140625 421.472656 484.144531 419.261719 484.144531 C 414.925781 484.152344 410.589844 484.15625 406.25 484.167969 L 406.253906 485.175781 C 406.265625 489.835938 406.273438 494.492188 406.277344 499.148438 C 406.289062 512.351562 406.132812 525.546875 405.832031 538.75 C 410.605469 538.757812 415.378906 538.765625 420.152344 538.773438 C 422.371094 538.773438 424.585938 538.777344 426.804688 538.78125 C 428.941406 538.785156 431.078125 538.789062 433.214844 538.789062 C 434.03125 538.789062 434.847656 538.792969 435.664062 538.792969 C 436.804688 538.796875 437.945312 538.796875 439.085938 538.796875 L 440.121094 538.800781 C 440.914062 538.800781 441.707031 538.777344 442.5 538.75 L 442.917969 538.332031 C 443.035156 536.988281 443.105469 535.640625 443.175781 534.289062 C 443.328125 532.976562 443.664062 532.042969 444.167969 530.832031 L 444.167969 529.167969 L 445 529.167969 C 445.6875 528.382812 446.3125 527.558594 446.941406 526.726562 C 448.40625 525.386719 449.742188 524.691406 451.667969 524.167969 C 454.308594 523.855469 456.992188 523.953125 459.648438 523.976562 L 461.988281 523.976562 C 463.617188 523.976562 465.246094 523.984375 466.875 523.996094 C 468.957031 524.007812 471.035156 524.011719 473.117188 524.011719 C 474.726562 524.011719 476.332031 524.015625 477.941406 524.023438 C 478.707031 524.027344 479.476562 524.027344 480.242188 524.027344 C 481.316406 524.03125 482.390625 524.035156 483.464844 524.046875 L 484.410156 524.042969 C 486.636719 524.070312 488.679688 524.445312 490.832031 525 L 490.832031 525.832031 L 491.667969 525.832031 L 491.667969 526.667969 L 492.65625 527.628906 C 493.765625 528.765625 494.171875 529.328125 494.582031 530.832031 C 495.078125 534.242188 495.066406 537.640625 495.070312 541.078125 L 495.074219 542.960938 C 495.078125 544.273438 495.078125 545.585938 495.078125 546.898438 C 495.078125 548.566406 495.082031 550.238281 495.089844 551.90625 C 495.09375 553.203125 495.097656 554.5 495.09375 555.792969 C 495.09375 556.410156 495.097656 557.023438 495.101562 557.640625 C 495.140625 566.070312 495.140625 566.070312 493.742188 568.71875 C 493.351562 569.300781 492.929688 569.859375 492.5 570.417969 L 492.5 571.25 L 491.667969 571.25 L 491.667969 572.082031 L 490.808594 572.421875 C 489.945312 572.773438 489.097656 573.152344 488.265625 573.5625 C 486.59375 574.277344 484.988281 574.347656 483.1875 574.339844 L 482.171875 574.351562 C 481.074219 574.363281 479.972656 574.363281 478.871094 574.363281 L 476.558594 574.371094 C 474.949219 574.378906 473.335938 574.378906 471.722656 574.375 C 469.664062 574.371094 467.605469 574.386719 465.546875 574.402344 C 463.957031 574.414062 462.367188 574.414062 460.773438 574.414062 C 460.015625 574.414062 459.257812 574.417969 458.5 574.425781 C 451.855469 574.484375 451.855469 574.484375 449.160156 573.167969 C 446.960938 571.851562 445.53125 570.335938 444.246094 568.125 C 443.167969 565.902344 443.175781 563.929688 443.300781 561.496094 L 443.332031 560.417969 L 442.917969 560 C 441.753906 559.964844 440.585938 559.949219 439.421875 559.960938 L 438.265625 559.964844 C 432.386719 559.996094 426.503906 560.101562 420.625 560.195312 C 419 560.21875 417.371094 560.242188 415.746094 560.269531 C 412.582031 560.316406 409.414062 560.367188 406.25 560.417969 C 406.238281 570.871094 406.234375 581.324219 406.226562 591.777344 C 406.226562 596.628906 406.222656 601.484375 406.21875 606.335938 C 406.214844 610.570312 406.210938 614.800781 406.210938 619.03125 C 406.210938 621.273438 406.207031 623.511719 406.207031 625.75 C 406.203125 627.863281 406.203125 629.972656 406.203125 632.082031 C 406.203125 632.855469 406.203125 633.628906 406.199219 634.398438 C 406.148438 642.453125 406.148438 642.453125 407.734375 650.3125 L 408.066406 651.386719 C 410.21875 658.101562 413.898438 664.859375 418.75 670 L 419.582031 670 L 419.917969 670.75 C 420.433594 671.699219 420.953125 672.28125 421.746094 673.015625 L 422.523438 673.738281 L 423.332031 674.480469 L 424.144531 675.238281 C 425.167969 676.195312 425.167969 676.195312 426.25 677.082031 L 427.082031 677.082031 L 427.082031 677.917969 C 427.949219 678.539062 428.832031 679.128906 429.738281 679.6875 L 430.550781 680.195312 C 431.09375 680.535156 431.632812 680.871094 432.175781 681.207031 C 432.789062 681.585938 433.394531 681.976562 433.996094 682.367188 C 443.121094 688.148438 454.398438 690.78125 465.105469 691.296875 C 467.042969 691.351562 468.980469 691.351562 470.917969 691.335938 C 471.914062 691.328125 472.90625 691.328125 473.902344 691.328125 L 475.835938 691.320312 L 476.71875 691.320312 C 478.542969 691.300781 480.285156 691.117188 482.082031 690.832031 C 482.933594 690.773438 483.785156 690.722656 484.636719 690.675781 C 487.042969 690.503906 489.289062 690.058594 491.628906 689.476562 C 492.761719 689.203125 493.875 689.003906 495.027344 688.828125 C 504.460938 687.160156 513.429688 683.109375 521.667969 678.332031 L 521.667969 677.5 L 522.605469 677.34375 C 523.667969 677.101562 524.46875 676.777344 525.417969 676.25 L 525.417969 675.417969 L 526.332031 675.285156 C 527.609375 674.972656 528.421875 674.511719 529.503906 673.777344 L 530.503906 673.113281 L 531.25 672.5 L 531.25 671.667969 L 532.003906 671.519531 C 533.488281 671.082031 534.515625 669.996094 535.652344 668.984375 L 536.421875 668.308594 C 537.199219 667.625 537.976562 666.9375 538.75 666.25 L 540.152344 665.019531 C 541.777344 663.589844 541.777344 663.589844 543.332031 662.082031 L 543.332031 661.25 L 544.167969 661.25 C 544.921875 660.441406 544.921875 660.441406 545.675781 659.425781 L 546.472656 658.402344 L 547.082031 657.5 L 547.082031 656.667969 L 547.917969 656.667969 C 549.039062 655.507812 549.039062 655.507812 550 654.167969 L 550 652.917969 L 550.832031 652.917969 C 551.59375 652.027344 551.59375 652.027344 552.34375 650.910156 L 553.140625 649.785156 L 553.75 648.75 L 553.75 647.5 L 554.582031 647.5 C 555.132812 646.574219 555.679688 645.644531 556.222656 644.714844 C 556.378906 644.453125 556.535156 644.191406 556.695312 643.921875 C 557.53125 642.480469 558.128906 641.269531 558.332031 639.582031 L 559.167969 639.582031 C 561.585938 634.601562 563.601562 629.613281 565.132812 624.277344 C 565.402344 623.375 565.71875 622.5 566.042969 621.613281 C 567.546875 617.101562 568.046875 612.40625 568.246094 607.675781 C 568.320312 606.460938 568.472656 605.351562 568.75 604.167969 L 569.582031 604.167969 C 570.285156 603.382812 570.921875 602.558594 571.566406 601.726562 C 572.863281 600.488281 574.148438 599.773438 575.832031 599.167969 C 577.546875 598.769531 579.273438 598.519531 581.015625 598.28125 C 581.917969 598.152344 582.820312 598.019531 583.722656 597.886719 L 585.023438 597.699219 C 586.703125 597.425781 588.34375 597.054688 590 596.667969 L 591.171875 596.457031 C 592.082031 596.292969 592.082031 596.292969 592.832031 595.851562 C 593.886719 595.351562 594.875 595.136719 596.015625 594.894531 C 598.503906 594.304688 600.667969 593.335938 602.960938 592.226562 C 604.167969 591.667969 604.167969 591.667969 605.652344 591.25 C 609.808594 590.039062 613.703125 587.488281 617.5 585.417969 L 617.5 584.582031 L 618.167969 584.472656 C 624.664062 582.480469 630.371094 575.964844 635.050781 571.308594 L 635.832031 570.417969 L 635.832031 569.582031 L 636.667969 569.582031 C 638.972656 567.191406 640.878906 564.414062 642.734375 561.667969 C 642.917969 561.398438 643.101562 561.128906 643.292969 560.851562 C 643.746094 560.164062 644.167969 559.457031 644.582031 558.75 L 644.582031 557.5 L 645.417969 557.5 C 646.046875 556.355469 646.671875 555.210938 647.292969 554.0625 L 647.832031 553.082031 L 648.347656 552.128906 L 648.824219 551.257812 C 649.273438 550.3125 649.273438 550.3125 649.167969 548.75 L 650 548.75 C 652.226562 543.796875 653.917969 538.882812 655.078125 533.566406 C 655.277344 532.707031 655.480469 531.847656 655.714844 530.996094 C 656.558594 527.859375 656.972656 524.824219 657.1875 521.589844 L 657.292969 520.09375 C 657.53125 516.25 657.421875 512.582031 657.082031 508.75 C 657.058594 508.160156 657.035156 507.570312 657.019531 506.980469 C 656.863281 502.367188 656.042969 498.132812 654.582031 493.75 C 654.457031 493.179688 654.335938 492.605469 654.21875 492.03125 C 653.851562 490.339844 653.359375 488.730469 652.785156 487.101562 C 652.507812 486.269531 652.285156 485.4375 652.082031 484.582031 L 651.25 484.582031 L 651.09375 483.75 C 650.953125 483.070312 650.800781 482.390625 650.605469 481.722656 C 650.035156 479.742188 649.914062 478.296875 650.417969 476.25 C 651.210938 474.066406 652.117188 472.097656 653.75 470.417969 C 654.265625 470.035156 654.785156 469.660156 655.3125 469.296875 L 656.667969 468.332031 L 656.667969 467.5 L 657.503906 467.265625 C 659.296875 466.402344 660.574219 465.113281 662.003906 463.75 L 662.878906 462.941406 C 663.972656 461.917969 663.972656 461.917969 665 460.832031 L 665 460 L 666.25 460 L 666.25 459.167969 L 666.953125 458.90625 C 668.320312 458.09375 669.042969 457.109375 670 455.832031 L 670 455 L 670.832031 455 L 670.832031 454.167969 L 671.667969 454.167969 C 672.234375 453.546875 672.234375 453.546875 672.761719 452.761719 L 673.324219 451.96875 L 673.75 451.25 L 673.75 450.417969 L 674.582031 450.417969 C 675.34375 449.527344 675.34375 449.527344 676.09375 448.410156 L 676.890625 447.285156 L 677.5 446.25 L 677.5 445 L 678.332031 445 C 678.886719 444.261719 678.886719 444.261719 679.425781 443.28125 L 680.089844 442.136719 L 680.832031 440.832031 C 681.121094 440.347656 681.40625 439.859375 681.695312 439.375 C 683.640625 436.066406 683.640625 436.066406 685.09375 432.523438 C 685.695312 430.925781 686.535156 429.4375 687.332031 427.929688 C 687.96875 426.554688 688.363281 425.210938 688.75 423.75 L 689.136719 422.453125 C 690.140625 419.066406 690.949219 415.664062 691.691406 412.210938 C 691.921875 411.136719 692.171875 410.078125 692.453125 409.015625 C 693.265625 405.898438 693.523438 402.902344 693.628906 399.695312 C 693.714844 397.15625 693.714844 397.15625 694.167969 396.25 C 694.359375 392.421875 694.070312 388.582031 693.800781 384.765625 L 693.703125 383.21875 C 693.484375 380.039062 693.199219 376.867188 692.5 373.75 L 692.082031 373.332031 C 691.808594 371.957031 691.566406 370.582031 691.332031 369.199219 C 691.039062 367.5625 690.671875 366.117188 690 364.582031 C 689.546875 363.0625 689.121094 361.542969 688.75 360 L 687.917969 360 L 687.855469 359.253906 C 687.679688 357.421875 687.480469 355.847656 686.667969 354.167969 L 685.832031 354.167969 L 685.730469 353.132812 C 685.34375 351.316406 684.605469 349.863281 683.75 348.230469 L 683.285156 347.320312 C 682.886719 346.546875 682.484375 345.773438 682.082031 345 L 681.667969 344.167969 L 680.832031 344.167969 L 680.753906 343.316406 C 680.292969 341.625 679.386719 340.4375 678.359375 339.035156 L 677.785156 338.222656 C 677.296875 337.546875 676.777344 336.894531 676.25 336.25 L 675.417969 336.25 L 675.3125 335.566406 C 674.890625 334.242188 674.175781 333.304688 673.359375 332.1875 L 672.460938 330.945312 L 671.667969 330 L 670.832031 330 L 670.832031 329.167969 L 670 329.167969 L 669.582031 327.917969 L 668.75 327.917969 L 668.464844 326.980469 C 667.96875 325.765625 667.96875 325.765625 666.875 324.871094 L 665.832031 324.167969 L 665 324.167969 L 664.167969 322.5 L 663.332031 322.5 L 663.332031 321.667969 C 662.644531 321.078125 662.644531 321.078125 661.769531 320.496094 C 660.367188 319.464844 659.257812 318.585938 658.332031 317.082031 C 657.53125 315.152344 657.082031 313.425781 657.082031 311.328125 C 657.445312 309.332031 658.296875 307.484375 659.054688 305.609375 C 659.746094 303.726562 660.160156 301.832031 660.550781 299.867188 C 660.832031 298.75 660.832031 298.75 661.667969 297.5 C 663.179688 291.828125 663.460938 286.144531 663.417969 280.308594 C 663.410156 279.226562 663.410156 278.144531 663.410156 277.0625 C 663.410156 276.371094 663.40625 275.683594 663.402344 274.992188 L 663.402344 274.015625 C 663.421875 272.371094 663.421875 272.371094 662.917969 270.832031 C 662.820312 270.054688 662.746094 269.273438 662.683594 268.488281 L 662.578125 267.222656 L 662.5 266.25 L 661.667969 266.25 L 661.796875 264.636719 C 661.804688 262.386719 661.304688 260.378906 660.703125 258.230469 L 660.433594 257.257812 C 659.898438 255.421875 659.222656 253.785156 658.332031 252.082031 L 657.941406 250.675781 C 657.609375 249.535156 657.289062 248.679688 656.757812 247.640625 C 656.605469 247.347656 656.457031 247.054688 656.304688 246.753906 L 655.832031 245.832031 C 655.535156 245.226562 655.234375 244.617188 654.933594 244.011719 C 651.523438 237.21875 647.191406 231.089844 641.667969 225.832031 L 640.832031 225.832031 L 640.832031 225 L 640 225 L 639.582031 223.75 L 638.75 223.75 L 638.75 222.917969 C 638.085938 222.308594 637.394531 221.734375 636.691406 221.171875 L 635.429688 220.164062 L 634.167969 219.167969 L 633.070312 218.273438 L 632.082031 217.472656 L 631.199219 216.757812 L 630.417969 216.25 L 629.167969 216.25 L 628.75 215 C 627.710938 214.234375 627.710938 214.234375 626.40625 213.488281 L 625.6875 213.0625 C 625.175781 212.757812 624.664062 212.453125 624.152344 212.152344 C 623.300781 211.644531 622.453125 211.132812 621.613281 210.617188 L 619.921875 209.582031 L 619.105469 209.082031 C 618.4375 208.679688 617.765625 208.292969 617.082031 207.917969 L 616.25 207.917969 L 616.25 207.082031 L 615.417969 207.082031 L 615.078125 205.964844 C 614.65625 204.605469 614.65625 204.605469 613.933594 203.640625 C 613.167969 202.1875 613.195312 201.140625 613.230469 199.503906 C 613.234375 198.992188 613.242188 198.480469 613.25 197.949219 C 613.332031 196.667969 613.332031 196.667969 613.75 195.832031 C 613.835938 195.140625 613.902344 194.445312 613.957031 193.75 C 614.121094 191.757812 614.121094 191.757812 614.582031 190.832031 C 614.625 189.648438 614.640625 188.476562 614.636719 187.292969 L 614.640625 186.300781 C 614.683594 184.554688 614.683594 184.554688 614.167969 182.917969 C 614.09375 182.222656 614.03125 181.527344 613.984375 180.832031 C 613.828125 178.941406 613.539062 177.136719 613.140625 175.285156 C 612.789062 173.53125 612.539062 171.761719 612.277344 169.992188 C 612.101562 168.878906 611.898438 167.769531 611.667969 166.667969 L 610.832031 166.667969 L 610.890625 165.398438 C 610.828125 163.65625 610.488281 162.371094 609.921875 160.730469 L 609.640625 159.914062 C 608.796875 157.515625 607.785156 155.203125 606.667969 152.917969 L 605.832031 152.917969 L 605.78125 151.925781 C 605.269531 149.800781 604.222656 148.003906 602.917969 146.25 L 602.082031 146.25 L 602.003906 145.390625 C 601.558594 143.769531 600.726562 142.484375 599.582031 141.25 L 598.75 141.25 L 598.332031 139.582031 L 597.5 139.582031 L 596.667969 137.5 L 595.832031 137.5 C 595.726562 137.261719 595.617188 137.023438 595.503906 136.777344 C 594.960938 135.761719 594.34375 134.960938 593.59375 134.089844 L 592.855469 133.210938 C 592.136719 132.441406 592.136719 132.441406 591.179688 132.238281 L 590.417969 132.082031 L 589.582031 130.417969 C 588.792969 129.632812 587.980469 129.003906 587.082031 128.332031 L 586.25 128.332031 L 586.25 127.5 C 585.4375 126.871094 584.605469 126.273438 583.75 125.703125 L 583.003906 125.195312 C 582.28125 124.710938 581.558594 124.230469 580.832031 123.75 L 579.773438 123.039062 C 579.035156 122.558594 578.269531 122.109375 577.5 121.667969 L 576.25 121.667969 L 576.25 120.832031 C 561.789062 113.460938 547.300781 110.828125 531.203125 110.609375 C 528.863281 110.550781 526.707031 110.199219 524.582031 109.167969 C 522.695312 107.523438 521.6875 105.660156 520.832031 103.332031 L 520 103.332031 L 520.050781 101.953125 L 520 100.417969 L 519.167969 99.167969 C 518.980469 98.605469 518.804688 98.042969 518.644531 97.472656 C 517.902344 95.175781 516.710938 93.273438 515.417969 91.25 L 514.707031 90.097656 C 513.320312 87.863281 511.847656 85.75 510.199219 83.699219 C 509.683594 83.046875 509.210938 82.359375 508.75 81.667969 L 507.917969 81.667969 L 507.5 80.417969 L 506.667969 80.417969 L 506.667969 79.582031 L 505.832031 79.582031 L 505.519531 78.847656 C 504.921875 77.777344 504.257812 77.152344 503.332031 76.355469 L 502.449219 75.578125 L 501.667969 75 L 500.832031 75 L 500.832031 74.167969 C 500.238281 73.617188 500.238281 73.617188 499.445312 73.078125 L 498.546875 72.441406 L 497.578125 71.769531 L 496.589844 71.082031 C 494.195312 69.433594 491.773438 67.964844 489.167969 66.667969 L 487.566406 65.835938 C 476.792969 60.277344 465.167969 58.167969 453.078125 58.652344 C 443.289062 59.339844 434.003906 62.566406 425.832031 67.917969 M 489.582031 167.082031 C 488.105469 167.925781 487.160156 169.070312 486.09375 170.390625 C 485.089844 172.316406 485.191406 174.382812 485.253906 176.503906 C 485.4375 178.089844 485.757812 179.25 486.585938 180.605469 C 487.683594 182.027344 488.917969 182.777344 490.46875 183.644531 C 492.46875 184.445312 494.550781 184.359375 496.667969 184.167969 C 498.128906 183.808594 498.128906 183.808594 499.167969 183.332031 L 499.167969 182.5 L 499.871094 182.449219 C 500.953125 182.113281 500.953125 182.113281 501.925781 180.988281 C 502.980469 179.628906 503.425781 178.371094 503.75 176.667969 C 503.957031 174.527344 503.785156 173.21875 502.917969 171.25 C 502.644531 170.691406 502.367188 170.136719 502.082031 169.582031 L 501.25 169.582031 L 501.25 168.75 C 499.703125 167.402344 498.347656 166.550781 496.355469 166.042969 C 493.917969 165.652344 491.839844 166.136719 489.582031 167.082031 M 521.296875 187.472656 C 520.65625 188.429688 520.113281 189.394531 519.582031 190.417969 C 519.277344 190.882812 518.964844 191.339844 518.644531 191.796875 C 518.050781 192.710938 517.539062 193.597656 517.082031 194.582031 L 516.25 194.582031 L 516.25 195.417969 L 515.417969 195.417969 C 514.929688 195.902344 514.449219 196.390625 513.96875 196.878906 C 510.609375 200.164062 506.136719 202.277344 501.628906 203.5 C 496.253906 204.605469 491.191406 204.9375 485.851562 203.394531 C 482.605469 202.28125 479.441406 200.859375 476.667969 198.828125 L 475.417969 197.917969 L 474.582031 197.917969 L 474.25 197.175781 C 473.730469 196.214844 473.167969 195.554688 472.421875 194.765625 C 470.417969 192.53125 468.457031 189.949219 467.5 187.082031 L 405.832031 187.082031 L 406.25 192.082031 C 406.292969 193.472656 406.324219 194.855469 406.335938 196.246094 L 406.347656 197.40625 C 406.359375 198.652344 406.371094 199.894531 406.382812 201.140625 L 406.40625 203.753906 C 406.429688 206.03125 406.453125 208.304688 406.472656 210.582031 C 406.492188 212.914062 406.515625 215.242188 406.539062 217.570312 C 406.582031 222.132812 406.625 226.691406 406.667969 231.25 C 425.648438 231.265625 444.628906 231.273438 463.609375 231.273438 L 464.816406 231.273438 C 471.28125 231.273438 477.746094 231.277344 484.207031 231.28125 C 490.835938 231.285156 497.464844 231.289062 504.089844 231.289062 C 508.183594 231.289062 512.273438 231.292969 516.367188 231.296875 C 519.171875 231.296875 521.972656 231.296875 524.777344 231.296875 C 526.394531 231.296875 528.015625 231.296875 529.632812 231.300781 C 531.386719 231.300781 533.136719 231.300781 534.886719 231.300781 L 536.457031 231.304688 L 537.867188 231.300781 L 539.09375 231.300781 L 540 231.25 L 540.417969 230.832031 C 540.457031 230.265625 540.46875 229.691406 540.464844 229.121094 L 540.46875 228.003906 L 540.464844 226.769531 L 540.464844 225.476562 C 540.464844 224.058594 540.460938 222.640625 540.457031 221.222656 L 540.457031 218.28125 C 540.453125 215.695312 540.449219 213.109375 540.445312 210.523438 C 540.441406 207.886719 540.4375 205.25 540.4375 202.613281 C 540.433594 197.4375 540.425781 192.261719 540.417969 187.082031 C 537.851562 186.929688 535.289062 186.804688 532.722656 186.699219 C 531.847656 186.660156 530.976562 186.613281 530.105469 186.5625 C 528.847656 186.488281 527.59375 186.4375 526.339844 186.390625 L 525.160156 186.304688 C 522.996094 186.253906 522.996094 186.253906 521.296875 187.472656 M 577.792969 282.300781 C 576.039062 283.703125 574.757812 285.105469 573.828125 287.160156 C 573.40625 288.558594 573.328125 289.519531 573.492188 290.976562 C 573.980469 292.882812 574.53125 294.4375 575.800781 295.960938 C 577.078125 297.117188 578.390625 298.117188 580 298.75 C 582.292969 299.015625 584.6875 299.164062 586.882812 298.371094 C 588.710938 297.28125 590.042969 295.90625 591.25 294.167969 C 592.125 292.332031 592.257812 290.5625 592.21875 288.554688 C 592.003906 286.890625 591.367188 285.539062 590.417969 284.167969 C 589.816406 283.449219 589.816406 283.449219 589.167969 282.917969 L 588.332031 282.917969 L 588.332031 282.082031 C 584.699219 280.699219 581.253906 280.003906 577.792969 282.300781 M 637.089844 387.207031 C 635.621094 388.449219 634.636719 389.972656 633.75 391.667969 C 633.179688 393.375 633.128906 394.882812 633.332031 396.667969 C 633.820312 398.289062 634.546875 399.535156 635.730469 400.75 C 636.695312 401.59375 637.601562 402.34375 638.75 402.917969 C 641.707031 403.367188 644.242188 403.480469 647.082031 402.5 L 648.332031 401.667969 L 648.332031 400.832031 L 649.167969 400.832031 L 649.167969 400 L 650 400 C 650.816406 398.605469 651.242188 397.578125 651.417969 395.960938 L 651.40625 394.347656 L 651.417969 392.734375 C 651.332031 391.25 651.332031 391.25 650.667969 390.015625 L 650 389.167969 L 649.167969 389.167969 L 648.878906 388.410156 C 648.375 387.429688 648.375 387.429688 647.34375 386.796875 C 645.335938 385.792969 643.429688 385.664062 641.203125 385.695312 C 639.59375 385.878906 638.453125 386.351562 637.089844 387.207031 M 462.5 466.25 L 462.082031 466.667969 C 462.046875 467.652344 462.035156 468.636719 462.042969 469.625 L 462.042969 470.519531 C 462.046875 471.464844 462.050781 472.414062 462.058594 473.359375 C 462.058594 474 462.0625 474.640625 462.0625 475.28125 C 462.066406 476.855469 462.074219 478.425781 462.082031 480 C 463.917969 480.917969 466.410156 480.496094 468.453125 480.492188 C 469.371094 480.496094 470.289062 480.503906 471.210938 480.511719 C 471.792969 480.511719 472.375 480.511719 472.957031 480.511719 L 474.566406 480.519531 L 475.832031 480.417969 L 476.667969 479.582031 C 476.785156 478.246094 476.785156 478.246094 476.746094 476.675781 L 476.746094 475.8125 C 476.738281 474.898438 476.730469 473.984375 476.71875 473.074219 C 476.714844 472.453125 476.710938 471.835938 476.707031 471.21875 C 476.699219 469.699219 476.683594 468.183594 476.667969 466.667969 C 475.4375 466.050781 474.195312 466.191406 472.851562 466.195312 L 471.960938 466.191406 C 471.339844 466.191406 470.71875 466.195312 470.097656 466.195312 C 469.144531 466.199219 468.1875 466.195312 467.234375 466.191406 C 466.632812 466.191406 466.03125 466.195312 465.429688 466.195312 L 464.558594 466.191406 C 463.871094 466.199219 463.1875 466.21875 462.5 466.25 M 462.5 541.667969 L 462.082031 542.082031 C 462.046875 543.070312 462.035156 544.054688 462.042969 545.039062 L 462.046875 546.679688 L 462.058594 548.777344 L 462.082031 555.417969 L 476.667969 555.417969 L 476.667969 542.5 C 474.714844 541.71875 473.78125 541.5625 471.75 541.570312 L 470.125 541.574219 L 469.285156 541.582031 C 468.433594 541.589844 467.582031 541.589844 466.730469 541.589844 C 464.613281 541.59375 464.613281 541.59375 462.5 541.667969 " fill-opacity="1" fill-rule="nonzero"/><path fill="#202020" d="M 318.78125 40.988281 C 320.085938 41.414062 321.394531 41.8125 322.707031 42.214844 L 325 42.917969 L 325 43.75 L 325.675781 43.949219 C 328.246094 44.746094 330.519531 45.847656 332.863281 47.160156 L 333.976562 47.78125 C 342.242188 52.457031 348.878906 58.730469 354.582031 66.25 L 355.394531 67.304688 C 360.65625 74.449219 364.535156 83.441406 365.53125 92.277344 C 366.148438 98.488281 366.371094 104.644531 366.351562 110.882812 L 366.355469 113.671875 C 366.359375 116.203125 366.359375 118.734375 366.355469 121.269531 C 366.351562 123.746094 366.355469 126.226562 366.355469 128.703125 C 366.359375 133.824219 366.359375 138.949219 366.355469 144.070312 C 366.351562 149.257812 366.351562 154.441406 366.351562 159.628906 L 366.351562 165.648438 C 366.355469 177.75 366.355469 189.851562 366.351562 201.953125 C 366.347656 217.734375 366.34375 233.5 366.34375 249.25 L 366.34375 275.804688 C 366.34375 288.078125 366.34375 300.347656 366.339844 312.621094 L 366.339844 313.828125 L 366.335938 333.210938 C 366.3125 365.734375 366.308594 398.230469 366.328125 430.695312 C 366.328125 452.179688 366.324219 473.660156 366.324219 495.140625 L 366.324219 496.277344 L 366.320312 506.460938 L 366.320312 536.8125 C 366.316406 552.035156 366.316406 567.257812 366.3125 582.476562 L 366.3125 583.46875 C 366.3125 588.640625 366.308594 593.8125 366.3125 598.984375 C 366.3125 604.074219 366.308594 609.160156 366.308594 614.25 C 366.304688 616.96875 366.304688 619.691406 366.308594 622.414062 C 366.308594 624.886719 366.308594 627.363281 366.304688 629.839844 C 366.304688 630.730469 366.304688 631.617188 366.304688 632.507812 C 366.316406 645.609375 366.316406 645.609375 365.15625 651.144531 L 364.941406 652.191406 C 362.34375 664.03125 356.53125 674.550781 348.75 683.75 C 347.8125 684.765625 346.84375 685.722656 345.832031 686.667969 C 344.796875 687.6875 343.777344 688.726562 342.777344 689.78125 C 334.136719 698.804688 322.191406 705.371094 310.238281 708.867188 C 300.824219 711.496094 291.835938 712.675781 282.082031 712.917969 L 280.914062 712.945312 C 264.511719 713.296875 264.511719 713.296875 261.25 711.667969 C 260.4375 711.535156 259.621094 711.410156 258.808594 711.292969 C 247.035156 709.605469 235.726562 705.953125 225 700.832031 L 224.261719 700.484375 C 220.40625 698.65625 216.765625 696.601562 213.175781 694.289062 C 211.730469 693.359375 210.25 692.507812 208.75 691.667969 L 208.75 690.832031 L 207.5 690.832031 L 207.5 690 L 206.796875 689.660156 C 205.746094 689.121094 204.734375 688.574219 203.75 687.917969 L 203.75 687.082031 L 203.097656 686.796875 C 201.710938 686.050781 200.355469 685.207031 199.167969 684.167969 L 199.167969 683.332031 L 198.332031 683.332031 L 198.332031 682.5 L 197.628906 682.207031 C 196.417969 681.527344 195.574219 680.683594 194.589844 679.699219 L 193.410156 678.523438 L 192.800781 677.910156 C 192.1875 677.292969 191.566406 676.675781 190.945312 676.058594 L 189.773438 674.882812 L 188.691406 673.800781 L 187.917969 672.917969 L 187.917969 672.082031 L 187.082031 672.082031 C 186.5 671.414062 186.5 671.414062 185.859375 670.519531 L 185.222656 669.640625 L 184.582031 668.75 L 183.878906 667.859375 L 183.332031 667.082031 L 183.332031 666.25 L 182.5 666.25 L 182.082031 664.582031 L 181.25 664.582031 L 180.574219 663.359375 C 179.90625 662.195312 179.191406 661.058594 178.4375 659.949219 C 173.988281 653.351562 173.988281 653.351562 172.917969 650.832031 L 172.917969 649.582031 L 172.082031 649.582031 L 171.5625 648.125 C 170.988281 646.574219 170.285156 645.140625 169.488281 643.691406 C 169.167969 642.917969 169.167969 642.917969 169.167969 641.25 L 168.332031 641.25 L 168.117188 640.484375 C 167.578125 638.621094 166.996094 636.816406 166.25 635.027344 C 165.488281 633.183594 164.949219 631.328125 164.460938 629.394531 C 164.1875 628.332031 164.1875 628.332031 163.757812 627.339844 C 163.242188 626.015625 162.949219 624.699219 162.65625 623.308594 C 162.546875 622.804688 162.441406 622.300781 162.328125 621.78125 C 162.082031 620.417969 162.082031 620.417969 162.082031 618.75 L 161.144531 618.65625 C 151.097656 617.445312 141.125 614.082031 132.082031 609.582031 L 130.378906 608.746094 C 127.707031 607.429688 125.078125 606.082031 122.5 604.582031 L 122.5 603.75 L 121.25 603.75 L 120.832031 602.917969 C 120.269531 602.574219 119.699219 602.253906 119.113281 601.953125 C 117.351562 601 115.742188 599.992188 114.167969 598.75 L 114.167969 597.917969 L 112.917969 597.917969 L 112.917969 597.082031 L 112.082031 597.082031 L 112.082031 596.25 L 111.378906 595.910156 C 110.328125 595.371094 109.316406 594.824219 108.332031 594.167969 L 108.332031 593.332031 L 107.5 593.332031 L 107.5 592.5 L 106.757812 592.167969 C 105.800781 591.648438 105.164062 591.105469 104.394531 590.339844 L 103.613281 589.558594 L 102.8125 588.75 L 101.992188 587.941406 L 101.21875 587.160156 L 100.507812 586.449219 L 100 585.832031 L 100 585 L 99.167969 585 C 98.488281 584.425781 98.488281 584.425781 97.917969 583.75 L 97.917969 582.917969 L 97.082031 582.917969 C 96.179688 581.683594 95.484375 580.621094 95 579.167969 L 94.167969 579.167969 C 93.671875 578.464844 93.203125 577.742188 92.761719 577.003906 C 91.996094 575.75 91.25 574.582031 90.320312 573.441406 L 89.582031 572.5 L 89.582031 571.667969 L 88.75 571.667969 C 88.15625 570.578125 87.5625 569.492188 86.972656 568.40625 C 86.496094 567.53125 86.011719 566.660156 85.527344 565.789062 L 84.84375 564.558594 L 84.210938 563.421875 C 83.75 562.5 83.75 562.5 83.75 561.667969 L 82.917969 561.667969 L 82.449219 560.3125 C 81.722656 558.359375 80.773438 556.550781 79.792969 554.714844 C 78.976562 552.914062 78.460938 551.066406 77.917969 549.167969 C 77.703125 548.464844 77.492188 547.765625 77.277344 547.070312 L 76.640625 544.972656 L 76.316406 543.921875 C 75.710938 541.921875 75.1875 539.925781 74.761719 537.878906 C 74.578125 537 74.578125 537 74.167969 535.832031 L 74.582031 534.582031 L 73.75 534.582031 L 73.6875 533.636719 C 73.539062 531.585938 73.371094 529.585938 72.917969 527.578125 C 69.726562 512.476562 72.957031 496.203125 77.082031 481.667969 L 76.347656 481.316406 C 75.464844 480.859375 74.667969 480.363281 73.855469 479.792969 L 73.078125 479.257812 L 72.5 478.75 L 72.5 477.917969 L 71.796875 477.605469 C 69.621094 476.429688 68.214844 474.8125 66.667969 472.917969 L 65.519531 471.796875 C 64.582031 470.832031 64.582031 470.832031 64.167969 469.582031 L 63.332031 469.582031 L 63.332031 468.75 L 62.5 468.75 C 61.59375 467.515625 60.902344 466.457031 60.417969 465 L 59.582031 465 L 58.75 462.917969 L 57.917969 462.917969 L 57.5 461.25 L 56.667969 461.25 L 55.832031 459.167969 L 55 459.167969 L 54.539062 458.296875 C 53.3125 455.996094 52.011719 453.808594 50.542969 451.65625 C 49.839844 450.589844 49.300781 449.480469 48.75 448.332031 L 48.191406 447.367188 C 46.128906 443.773438 44.464844 439.9375 43.75 435.832031 L 42.917969 435.832031 C 42.503906 434.507812 42.097656 433.179688 41.691406 431.847656 L 41.34375 430.71875 C 40.71875 428.671875 40.230469 426.714844 40 424.582031 L 39.167969 424.582031 L 39.019531 423.761719 C 38.800781 422.535156 38.582031 421.304688 38.359375 420.078125 L 38.128906 418.785156 L 37.90625 417.542969 L 37.699219 416.398438 C 37.507812 415.359375 37.507812 415.359375 37.082031 414.167969 C 35.21875 406.339844 34.96875 398.34375 34.949219 390.339844 L 34.941406 388.765625 C 34.949219 384.039062 35.230469 379.347656 35.832031 374.660156 L 35.9375 373.789062 C 36.027344 373.078125 36.136719 372.371094 36.25 371.667969 L 36.667969 371.25 C 36.875 370.242188 37.0625 369.242188 37.238281 368.230469 C 38.734375 360.015625 38.734375 360.015625 40.417969 356.25 C 40.667969 355.4375 40.910156 354.621094 41.144531 353.800781 C 42.597656 348.992188 44.65625 344.417969 46.769531 339.871094 L 47.1875 338.972656 C 47.871094 337.523438 48.597656 336.257812 49.582031 335 C 49.984375 334.285156 50.375 333.566406 50.753906 332.839844 C 52.789062 329.074219 55.261719 325.714844 57.859375 322.328125 L 58.496094 321.488281 L 59.070312 320.742188 C 59.609375 320.003906 59.609375 320.003906 60.007812 319.136719 C 60.738281 317.695312 62.019531 316.707031 63.175781 315.605469 C 64.585938 314.246094 64.585938 314.246094 65.417969 312.5 C 66.15625 311.769531 66.15625 311.769531 67.058594 311.015625 C 67.929688 310.277344 68.773438 309.558594 69.582031 308.75 C 69.480469 307.765625 69.480469 307.765625 69.167969 306.667969 L 68.867188 305.488281 L 68.542969 304.246094 C 68.15625 302.734375 67.828125 301.261719 67.65625 299.714844 L 67.5 298.332031 L 67.082031 297.917969 C 66.925781 296.800781 66.785156 295.679688 66.667969 294.558594 L 66.355469 291.753906 C 66.046875 289.027344 66.046875 289.027344 65.617188 286.320312 C 65.253906 283.921875 65.316406 281.507812 65.3125 279.089844 L 65.308594 278.246094 C 65.308594 274.144531 65.59375 270.214844 66.367188 266.1875 C 66.613281 264.863281 66.773438 263.53125 66.847656 262.1875 C 67.070312 259.285156 67.945312 256.53125 68.75 253.75 L 69.035156 252.6875 C 69.871094 249.683594 71.058594 246.808594 72.199219 243.910156 C 73.035156 241.789062 73.820312 239.648438 74.582031 237.5 L 75.417969 237.5 L 75.859375 235.9375 C 76.578125 233.761719 77.6875 231.90625 78.867188 229.953125 C 79.746094 228.476562 80.503906 226.964844 81.25 225.417969 L 82.082031 225.417969 L 82.402344 224.71875 C 83.457031 222.730469 84.910156 220.972656 86.25 219.167969 L 86.996094 218.125 L 87.65625 217.214844 L 88.238281 216.402344 L 88.75 215.832031 L 89.582031 215.832031 L 89.925781 215.089844 C 91.5625 212.011719 94.5 209.640625 97.097656 207.394531 C 97.796875 206.773438 98.46875 206.121094 99.113281 205.441406 L 100 204.582031 L 100.832031 204.582031 L 100.832031 203.75 C 101.824219 202.863281 101.824219 202.863281 102.917969 202.082031 L 103.75 202.082031 L 103.75 201.25 L 105.417969 200.832031 L 105.417969 200 C 106.207031 199.371094 106.207031 199.371094 107.238281 198.699219 L 108.265625 198.015625 C 109.167969 197.5 109.167969 197.5 110 197.5 L 110 196.667969 L 110.671875 196.347656 L 111.5625 195.910156 L 112.441406 195.488281 L 113.332031 195 L 114.214844 194.570312 L 115 193.75 C 115.140625 192.542969 115.1875 191.332031 115.148438 190.117188 L 115.136719 189.039062 C 115.125 187.902344 115.105469 186.761719 115.078125 185.625 C 115.0625 184.488281 115.046875 183.347656 115.03125 182.210938 C 115.023438 181.503906 115.011719 180.792969 114.996094 180.085938 C 114.972656 178.691406 114.972656 177.582031 115.417969 176.25 C 115.488281 175.496094 115.546875 174.742188 115.59375 173.988281 C 116.132812 167.054688 117.769531 160.175781 120.417969 153.75 L 120.867188 152.65625 C 122.304688 149.191406 123.738281 145.730469 125.492188 142.414062 C 125.855469 141.621094 126.0625 140.851562 126.25 140 L 127.082031 140 L 127.433594 139.097656 C 127.910156 137.933594 128.441406 136.824219 129.011719 135.703125 L 129.574219 134.589844 L 130 133.75 L 130.832031 133.75 L 131.222656 132.761719 C 131.667969 131.667969 131.667969 131.667969 132.082031 130.832031 L 132.917969 130.832031 L 133.214844 129.9375 C 133.839844 128.550781 134.636719 127.585938 135.625 126.433594 C 136.71875 125.152344 137.605469 124.011719 138.332031 122.5 C 139.019531 121.796875 139.714844 121.101562 140.417969 120.417969 L 140.832031 119.582031 L 142.082031 119.582031 L 142.082031 118.75 L 142.917969 118.75 L 142.917969 117.917969 C 143.488281 117.238281 143.488281 117.238281 144.167969 116.667969 L 145 116.667969 L 145 115.832031 L 145.832031 115.832031 L 145.832031 115 L 146.667969 115 L 146.667969 114.167969 C 147.382812 113.507812 148.121094 112.875 148.878906 112.265625 L 150.125 111.25 C 151.25 110.417969 151.25 110.417969 152.5 110 L 152.5 109.167969 L 153.332031 109.167969 L 153.332031 108.332031 C 154.324219 107.65625 154.324219 107.65625 155.417969 107.082031 L 156.25 107.082031 L 156.25 106.25 L 158.75 105.417969 L 158.75 104.582031 L 159.714844 104.113281 C 161.453125 103.25 163.140625 102.289062 164.835938 101.335938 C 165.832031 100.832031 165.832031 100.832031 166.667969 100.832031 L 166.667969 100 C 167.550781 99.652344 168.4375 99.304688 169.324219 98.957031 L 170.816406 98.371094 C 172.082031 97.917969 172.082031 97.917969 172.917969 97.917969 L 172.917969 97.082031 L 173.984375 96.761719 L 175.417969 96.328125 L 176.824219 95.902344 C 177.882812 95.5625 178.898438 95.203125 179.933594 94.800781 C 181.804688 94.089844 183.710938 93.589844 185.652344 93.097656 L 187.683594 92.578125 L 188.578125 92.347656 C 189.386719 92.136719 190.1875 91.902344 190.988281 91.664062 C 193.457031 90.988281 195.976562 90.722656 198.515625 90.390625 L 200.207031 90.15625 C 202.859375 89.800781 205.453125 89.527344 208.128906 89.554688 C 209.375 89.558594 210.460938 89.488281 211.667969 89.167969 C 212.980469 87.824219 213.507812 86.316406 214.167969 84.582031 C 214.601562 83.773438 215.050781 82.976562 215.519531 82.1875 L 216.25 80.941406 C 217.6875 78.597656 219.222656 76.316406 220.773438 74.046875 C 221.09375 73.566406 221.410156 73.082031 221.714844 72.59375 C 222.097656 71.992188 222.503906 71.410156 222.917969 70.832031 L 223.75 70.832031 L 224.582031 68.75 L 225.417969 68.75 L 226.667969 66.25 L 227.5 66.25 L 227.5 65.417969 C 228.109375 64.902344 228.722656 64.394531 229.347656 63.894531 C 230.070312 63.308594 230.070312 63.308594 230.78125 62.34375 C 232.023438 60.808594 233.5 59.609375 235 58.332031 L 235.835938 57.589844 L 236.613281 56.902344 L 237.316406 56.277344 L 237.917969 55.832031 L 238.75 55.832031 L 238.75 55 L 240.105469 54.246094 C 241.003906 53.734375 241.804688 53.230469 242.628906 52.605469 L 243.332031 52.082031 L 244.167969 52.082031 L 244.167969 51.25 C 245.121094 50.761719 246.074219 50.277344 247.03125 49.792969 L 247.851562 49.371094 C 249.90625 48.332031 249.90625 48.332031 250.832031 48.332031 L 250.832031 47.5 C 253.066406 46.621094 255.285156 45.714844 257.5 44.792969 L 258.777344 44.257812 C 259.535156 43.941406 260.296875 43.625 261.054688 43.304688 C 278.679688 36.023438 300.675781 34.984375 318.78125 40.988281 M 285.417969 59.167969 C 284.707031 59.289062 283.996094 59.402344 283.28125 59.503906 C 276.988281 60.523438 270.757812 62.242188 265 65 L 263.863281 65.527344 C 252.96875 70.753906 243.671875 79.097656 236.773438 88.972656 C 234.492188 92.332031 232.734375 95.816406 231.253906 99.597656 L 230.820312 100.710938 C 230.542969 101.429688 230.269531 102.152344 230.007812 102.875 C 229.125 105.195312 228.105469 107.464844 226.25 109.167969 C 224.140625 110.28125 222.324219 110.613281 219.9375 110.675781 L 218.964844 110.71875 C 218.28125 110.746094 217.601562 110.773438 216.917969 110.796875 C 215.128906 110.859375 213.34375 110.945312 211.558594 111.03125 L 210.492188 111.082031 C 199.777344 111.628906 189.707031 113.648438 180 118.332031 L 178.765625 118.917969 C 169.863281 123.234375 161.375 129.492188 155 137.082031 L 154.445312 137.746094 C 145.785156 148.148438 139.972656 160.476562 137.597656 173.796875 C 136.320312 181.597656 135.660156 190.519531 137.082031 198.332031 C 137.230469 200.53125 137.316406 202.601562 136.640625 204.714844 C 134.582031 207.570312 132.539062 209.035156 129.335938 210.542969 C 127.238281 211.542969 125.460938 212.757812 123.621094 214.160156 C 122.480469 215.015625 121.308594 215.773438 120.105469 216.535156 C 115.898438 219.3125 111.609375 222.820312 108.332031 226.667969 L 108.332031 227.5 L 107.5 227.5 C 106.351562 228.738281 105.328125 230.078125 104.285156 231.40625 C 103.765625 232.0625 103.238281 232.710938 102.707031 233.359375 C 98.734375 238.285156 95.828125 243.777344 93.332031 249.582031 L 92.699219 251.03125 C 90.953125 255.167969 89.785156 259.386719 88.75 263.75 L 88.449219 265.003906 C 87.433594 269.652344 87.433594 274.402344 87.449219 279.140625 L 87.441406 280.742188 C 87.449219 286.140625 87.867188 291.246094 89.078125 296.507812 C 89.269531 297.34375 89.453125 298.183594 89.632812 299.019531 C 90.285156 301.953125 91.097656 304.644531 92.453125 307.332031 C 93.289062 309.140625 93.726562 310.925781 93.75 312.917969 C 93.300781 315.324219 92.355469 317.328125 90.808594 319.21875 C 89.253906 320.851562 87.496094 322.230469 85.734375 323.632812 C 82.429688 326.355469 79.71875 329.554688 77.082031 332.917969 L 76.191406 334.042969 C 65.960938 347.257812 60.203125 362.546875 57.863281 379.011719 C 56.527344 389.675781 56.765625 400.53125 58.957031 411.074219 C 59.109375 411.808594 59.257812 412.539062 59.402344 413.273438 C 60.796875 420.3125 62.957031 426.765625 65.832031 433.332031 L 66.265625 434.339844 C 68.925781 440.449219 72.386719 445.761719 76.542969 450.953125 C 77.082031 451.667969 77.082031 451.667969 77.8125 452.910156 L 78.332031 453.75 L 79.167969 453.75 L 79.167969 454.582031 C 79.84375 455.292969 80.539062 455.988281 81.25 456.667969 C 81.644531 457.066406 82.035156 457.46875 82.425781 457.871094 L 83.621094 459.089844 L 84.234375 459.722656 C 84.75 460.246094 85.289062 460.75 85.832031 461.25 L 86.667969 461.25 L 86.667969 462.082031 C 87.234375 462.644531 87.234375 462.644531 87.996094 463.203125 L 88.867188 463.871094 L 89.816406 464.582031 L 90.792969 465.320312 C 97.640625 470.4375 104.773438 474.773438 112.792969 477.8125 C 113.714844 478.160156 114.625 478.535156 115.527344 478.933594 C 121.054688 481.324219 126.980469 482.851562 132.917969 483.75 L 134.988281 484.085938 C 135.714844 484.199219 136.4375 484.3125 137.160156 484.425781 L 138.152344 484.582031 C 151.082031 486.515625 164.757812 485.746094 177.5 482.917969 L 178.382812 482.726562 C 187.910156 480.65625 197.109375 477.277344 205.832031 472.917969 L 205.832031 472.082031 L 206.714844 471.953125 C 208.097656 471.625 209.207031 471.089844 210.46875 470.441406 L 211.773438 469.78125 C 212.957031 469.167969 212.957031 469.167969 214.167969 468.332031 L 214.167969 467.5 L 216.25 467.082031 L 216.25 466.25 L 216.921875 466.144531 C 218.289062 465.71875 219.332031 464.988281 220.519531 464.191406 L 221.882812 463.296875 L 222.917969 462.5 L 222.917969 461.667969 L 223.601562 461.5625 C 224.921875 461.140625 225.859375 460.425781 226.980469 459.609375 L 228.222656 458.710938 L 229.167969 457.917969 L 229.167969 457.082031 L 230 457.082031 L 230 456.25 L 231.25 455.832031 L 231.25 455 L 232.238281 454.84375 C 233.664062 454.621094 233.664062 454.621094 234.695312 454.328125 C 236.664062 453.824219 238.132812 453.667969 240.105469 454.21875 C 242.257812 454.988281 243.933594 455.960938 245.496094 457.65625 C 246.746094 459.472656 247.546875 461.039062 247.863281 463.230469 C 248.023438 465.554688 247.632812 467.464844 246.667969 469.582031 C 244.554688 473.46875 240.605469 475.84375 237.082031 478.332031 L 235.753906 479.285156 C 233.140625 481.140625 233.140625 481.140625 232.082031 481.667969 L 232.082031 482.5 L 231.1875 482.820312 C 229.886719 483.382812 228.839844 484.082031 227.683594 484.894531 C 225.660156 486.265625 223.632812 487.410156 221.429688 488.464844 C 220.019531 489.15625 218.636719 489.890625 217.253906 490.636719 C 210.59375 494.203125 203.878906 497.128906 196.71875 499.53125 L 195.839844 499.828125 C 192.410156 500.980469 189.015625 501.9375 185.464844 502.648438 C 184.359375 502.878906 183.28125 503.140625 182.195312 503.449219 C 166.152344 507.921875 145.910156 507.828125 129.722656 504.375 C 129.023438 504.226562 128.324219 504.082031 127.621094 503.941406 C 121.871094 502.777344 116.292969 501.238281 110.730469 499.402344 L 109.863281 499.121094 C 106.242188 497.933594 102.917969 496.535156 99.582031 494.683594 C 98.371094 494.066406 98.371094 494.066406 97.125 494.292969 L 96.25 494.582031 C 95.980469 495.902344 95.710938 497.222656 95.441406 498.542969 L 95.210938 499.660156 L 94.988281 500.769531 L 94.785156 501.773438 C 94.28125 504.632812 94.089844 507.414062 94.054688 510.3125 L 94.035156 511.472656 C 93.929688 521.253906 94.34375 529.992188 97.550781 539.3125 C 97.855469 540.234375 98.101562 541.144531 98.332031 542.082031 C 98.804688 543.292969 99.3125 544.484375 99.824219 545.679688 C 100.199219 546.570312 100.5625 547.464844 100.90625 548.371094 C 103.433594 554.816406 107.402344 561.9375 112.082031 567.082031 L 112.917969 567.082031 L 113.195312 567.773438 C 113.925781 569.054688 114.910156 570 115.964844 571.015625 L 116.5625 571.601562 C 117.152344 572.179688 117.742188 572.757812 118.332031 573.332031 C 119.300781 574.289062 120.257812 575.246094 121.175781 576.25 C 124.683594 580.015625 129.214844 583.394531 133.75 585.832031 L 134.582031 585.832031 L 134.582031 586.667969 C 135.871094 587.402344 136.347656 587.5 137.917969 587.5 L 137.917969 588.332031 C 144.5625 591.5625 151.378906 594.214844 158.542969 596.066406 L 159.539062 596.332031 C 163.59375 597.390625 167.578125 598.144531 171.742188 598.617188 C 174.273438 598.945312 176.542969 599.515625 178.75 600.832031 C 180.363281 602.324219 181.355469 603.753906 182.082031 605.832031 C 182.789062 608.710938 183.042969 611.609375 183.191406 614.566406 C 183.34375 615.921875 183.714844 617.046875 184.167969 618.332031 C 184.367188 619.199219 184.558594 620.066406 184.738281 620.9375 C 185.195312 622.980469 185.835938 624.960938 186.660156 626.882812 C 187.09375 627.945312 187.425781 629.007812 187.761719 630.105469 C 190.035156 636.980469 193.363281 643.25 197.5 649.167969 C 197.847656 649.675781 198.195312 650.183594 198.539062 650.695312 C 203.277344 657.574219 208.878906 663.550781 215.417969 668.75 L 216.691406 669.816406 C 220.804688 673.394531 220.804688 673.394531 225.417969 676.25 L 226.667969 676.25 L 226.667969 677.082031 L 228.75 677.5 L 228.75 678.332031 L 230.089844 679.003906 L 233.632812 680.773438 L 234.53125 681.222656 C 235.105469 681.507812 235.675781 681.800781 236.242188 682.097656 C 238.339844 683.1875 240.472656 684.003906 242.707031 684.765625 C 243.070312 684.890625 243.429688 685.015625 243.800781 685.144531 C 250.355469 687.710938 250.355469 687.710938 257.1875 688.777344 L 258.75 688.75 L 258.75 689.582031 C 261.027344 689.894531 263.308594 690.207031 265.585938 690.519531 L 266.695312 690.671875 L 267.917969 690.832031 L 269.503906 691.058594 C 271.296875 691.277344 273.074219 691.316406 274.882812 691.320312 L 275.910156 691.324219 C 276.625 691.324219 277.339844 691.328125 278.054688 691.328125 C 279.125 691.328125 280.195312 691.335938 281.265625 691.34375 C 287.074219 691.363281 293.109375 691.136719 298.75 689.582031 L 299.167969 689.167969 C 299.730469 689.0625 300.292969 688.96875 300.859375 688.878906 C 306.484375 687.785156 311.628906 685.132812 316.667969 682.5 L 317.5 682.082031 L 317.5 681.25 L 318.152344 681.144531 C 319.601562 680.699219 320.78125 679.945312 322.082031 679.167969 L 322.082031 678.332031 L 323.019531 677.996094 C 324.121094 677.519531 324.941406 677.042969 325.832031 676.25 L 325.832031 675.417969 L 326.667969 675.417969 L 326.667969 674.582031 L 327.5 674.582031 L 327.5 673.75 L 328.75 673.75 L 328.75 672.917969 L 329.441406 672.660156 C 330.796875 671.859375 331.691406 670.730469 332.683594 669.53125 L 333.296875 668.796875 C 334.726562 667.058594 336 665.3125 337.082031 663.332031 L 337.082031 662.5 L 337.917969 662.5 C 338.632812 661.5625 338.632812 661.5625 339.167969 660.417969 L 339.167969 658.75 L 340 658.75 C 342.925781 651.800781 344.964844 645.046875 345.242188 637.488281 L 345.296875 636.078125 C 345.511719 629.339844 345.433594 622.601562 345.386719 615.863281 C 345.375 613.90625 345.363281 611.953125 345.355469 609.996094 C 345.335938 606.730469 345.316406 603.460938 345.292969 600.191406 C 345.269531 596.414062 345.246094 592.632812 345.226562 588.855469 C 345.207031 585.203125 345.183594 581.550781 345.160156 577.898438 C 345.152344 576.347656 345.140625 574.796875 345.132812 573.246094 C 345.125 571.433594 345.113281 569.617188 345.097656 567.800781 C 345.09375 567.136719 345.089844 566.46875 345.085938 565.800781 C 345.082031 564.894531 345.078125 563.988281 345.070312 563.082031 L 345.058594 561.542969 L 345 560.417969 L 344.582031 560 C 343.726562 559.964844 342.871094 559.949219 342.015625 559.957031 L 341.191406 559.957031 C 340.277344 559.957031 339.359375 559.960938 338.445312 559.964844 L 336.480469 559.96875 C 335.070312 559.972656 333.65625 559.976562 332.242188 559.980469 C 330.007812 559.988281 327.769531 559.992188 325.535156 559.996094 C 319.171875 560.007812 312.8125 560.019531 306.453125 560.039062 C 302.941406 560.050781 299.433594 560.058594 295.921875 560.0625 C 293.703125 560.0625 291.480469 560.070312 289.261719 560.078125 C 287.875 560.085938 286.488281 560.085938 285.101562 560.085938 C 284.460938 560.085938 283.820312 560.089844 283.183594 560.09375 C 279.8125 560.113281 276.609375 560.023438 273.332031 559.167969 L 272.390625 558.929688 L 271.667969 558.75 L 271.667969 557.917969 C 270.695312 556.804688 270.695312 556.804688 269.582031 555.832031 L 268.75 555.832031 L 268.582031 555.15625 C 268.398438 554.429688 268.210938 553.707031 268.019531 552.984375 L 267.683594 551.691406 L 267.34375 550.40625 C 267.09375 549.214844 266.949219 548.289062 267.082031 547.082031 C 267.601562 546.027344 267.601562 546.027344 268.28125 544.972656 C 269.21875 543.523438 269.21875 543.523438 269.976562 541.980469 L 270.417969 541.25 L 272.082031 540.832031 L 275.832031 539.167969 L 345 538.75 L 345 356.667969 C 343.238281 356.3125 341.835938 356.199219 340.058594 356.203125 L 339.203125 356.203125 C 338.257812 356.203125 337.3125 356.207031 336.371094 356.210938 L 334.335938 356.210938 C 332.878906 356.210938 331.421875 356.214844 329.964844 356.21875 C 327.65625 356.222656 325.351562 356.226562 323.046875 356.230469 C 317.734375 356.234375 312.421875 356.242188 307.109375 356.253906 C 302.242188 356.261719 297.375 356.265625 292.507812 356.273438 C 290.21875 356.273438 287.925781 356.277344 285.632812 356.285156 C 284.207031 356.285156 282.78125 356.289062 281.355469 356.289062 C 280.691406 356.289062 280.03125 356.292969 279.371094 356.292969 C 278.46875 356.296875 277.566406 356.296875 276.664062 356.296875 L 275.132812 356.300781 C 273.800781 356.25 272.558594 356.074219 271.25 355.832031 C 270.261719 355.761719 269.273438 355.703125 268.28125 355.652344 C 263.160156 355.332031 258.433594 354.234375 253.527344 352.800781 C 252.46875 352.492188 251.40625 352.1875 250.339844 351.882812 C 245.28125 350.414062 240.519531 348.703125 235.859375 346.214844 C 234.964844 345.75 234.964844 345.75 233.75 345.832031 L 233.75 345 C 232.8125 344.449219 231.875 343.902344 230.9375 343.359375 L 230.136719 342.886719 C 228.847656 342.144531 227.703125 341.5625 226.25 341.25 L 226.25 340.417969 C 225.46875 339.765625 225.46875 339.765625 224.480469 339.140625 L 223.484375 338.476562 C 222.578125 337.960938 221.851562 337.6875 220.832031 337.5 L 220.832031 336.667969 C 220.023438 335.910156 220.023438 335.910156 219.011719 335.15625 L 217.984375 334.359375 L 217.082031 333.75 L 216.25 333.75 L 215.832031 332.5 C 215.101562 331.757812 215.101562 331.757812 214.21875 331.042969 C 212.558594 329.644531 212.558594 329.644531 211.820312 328.867188 L 211.25 328.332031 L 210.417969 328.332031 L 210.050781 327.578125 C 209.5625 326.585938 209.5625 326.585938 208.75 325.417969 L 207.917969 325.417969 L 207.570312 324.683594 C 207.09375 323.765625 206.5625 322.996094 205.9375 322.171875 L 205.273438 321.292969 L 204.582031 320.390625 L 203.230469 318.605469 L 202.625 317.8125 C 202.144531 317.167969 201.695312 316.5 201.25 315.832031 L 200.417969 315.832031 L 200.027344 314.636719 C 199.636719 313.390625 199.636719 313.390625 199.167969 312.5 L 198.332031 312.5 L 198.238281 311.660156 C 197.808594 309.996094 196.992188 308.683594 196.121094 307.214844 C 194.683594 304.734375 193.449219 302.292969 192.5 299.582031 C 192.292969 299.019531 192.085938 298.453125 191.875 297.890625 L 191.574219 297.078125 C 191.109375 295.886719 190.570312 294.730469 190.027344 293.570312 C 188.746094 290.480469 188.066406 287.511719 187.65625 284.191406 C 187.554688 283.417969 187.457031 282.640625 187.351562 281.863281 C 187.3125 281.527344 187.269531 281.1875 187.226562 280.839844 C 187.121094 279.972656 187.121094 279.972656 186.667969 279.167969 C 185.777344 274.519531 185.679688 269.867188 185.679688 265.152344 C 185.675781 263.976562 185.664062 262.800781 185.644531 261.625 C 185.644531 260.867188 185.640625 260.109375 185.640625 259.351562 L 185.625 258.300781 C 185.640625 256.152344 186.039062 254.644531 187.082031 252.761719 C 188.484375 250.484375 190.171875 248.839844 192.5 247.5 C 193.699219 246.886719 194.59375 246.664062 195.9375 246.511719 C 197.96875 246.714844 199.492188 247.304688 201.25 248.332031 C 202.460938 249.21875 203.566406 250.148438 204.582031 251.25 L 205.496094 252.238281 C 206.097656 253.171875 206.257812 253.828125 206.402344 254.941406 C 206.464844 256.445312 206.480469 257.945312 206.484375 259.453125 C 206.503906 260.585938 206.53125 261.714844 206.558594 262.847656 L 206.582031 263.714844 C 206.976562 278.023438 210.628906 290.917969 218.019531 303.148438 C 220.253906 306.714844 222.996094 309.824219 225.832031 312.917969 L 226.714844 313.890625 C 229.871094 317.207031 234.789062 321.875 239.167969 323.332031 L 239.582031 324.167969 C 240.257812 324.574219 240.257812 324.574219 241.074219 324.941406 C 242.238281 325.5 243.375 326.078125 244.5 326.714844 C 254.835938 332.507812 266.132812 334.980469 277.917969 335.132812 L 278.816406 335.144531 C 294.160156 335.34375 309.5 335.441406 324.84375 335.429688 C 327.128906 335.425781 329.417969 335.425781 331.707031 335.425781 C 336.136719 335.421875 340.570312 335.421875 345 335.417969 C 345.074219 321.433594 345.140625 307.453125 345.199219 293.472656 L 345.203125 292.582031 C 345.226562 287.824219 345.25 283.0625 345.273438 278.300781 C 345.300781 273.421875 345.324219 268.539062 345.34375 263.65625 C 345.355469 260.914062 345.367188 258.167969 345.382812 255.425781 C 345.398438 252.847656 345.410156 250.265625 345.417969 247.6875 C 345.421875 246.738281 345.429688 245.789062 345.433594 244.839844 C 345.441406 243.550781 345.445312 242.257812 345.449219 240.964844 L 345.460938 239.820312 L 345.460938 238.773438 C 345.464844 238.324219 345.464844 238.324219 345.464844 237.871094 C 345.445312 236.988281 345.445312 236.988281 345 235.832031 L 343.921875 235.832031 C 335.257812 235.804688 326.597656 235.773438 317.933594 235.734375 C 313.746094 235.714844 309.554688 235.699219 305.367188 235.6875 C 301.714844 235.679688 298.0625 235.664062 294.410156 235.644531 C 292.476562 235.636719 290.546875 235.628906 288.613281 235.625 C 286.792969 235.625 284.972656 235.617188 283.152344 235.601562 C 282.484375 235.597656 281.816406 235.597656 281.148438 235.597656 C 280.234375 235.597656 279.320312 235.589844 278.410156 235.582031 L 276.863281 235.578125 C 275.167969 235.390625 274.046875 234.871094 272.5 234.167969 L 271.25 234.167969 L 271.25 233.332031 L 270.417969 233.332031 L 270.417969 232.5 L 269.582031 232.5 L 269.582031 231.667969 L 268.75 231.667969 L 268.75 230.417969 L 267.917969 230.417969 L 267.734375 229.191406 L 267.5 227.917969 L 267.082031 227.5 C 267.035156 226.761719 267.007812 226.023438 267.003906 225.285156 L 266.988281 224.066406 C 267.085938 222.894531 267.367188 222.269531 267.917969 221.25 L 267.917969 220 L 268.75 220 L 269.582031 217.917969 L 270.417969 217.917969 L 270.417969 217.082031 L 271.328125 216.746094 C 272.492188 216.253906 273.511719 215.664062 274.582031 215 C 275.78125 214.398438 276.816406 214.523438 278.160156 214.515625 L 279.023438 214.511719 C 279.980469 214.503906 280.941406 214.5 281.898438 214.496094 L 283.957031 214.484375 C 285.820312 214.472656 287.6875 214.464844 289.550781 214.457031 C 291.5 214.449219 293.449219 214.4375 295.394531 214.425781 C 299.085938 214.40625 302.777344 214.386719 306.46875 214.367188 C 310.667969 214.347656 314.871094 214.324219 319.070312 214.300781 C 327.714844 214.253906 336.355469 214.210938 345 214.167969 C 345.042969 197.792969 345.074219 181.417969 345.089844 165.042969 L 345.09375 164 C 345.101562 158.429688 345.113281 152.859375 345.128906 147.289062 C 345.144531 141.566406 345.152344 135.84375 345.15625 130.125 C 345.160156 126.597656 345.167969 123.070312 345.179688 119.542969 C 345.1875 117.121094 345.191406 114.699219 345.1875 112.277344 C 345.1875 110.878906 345.191406 109.484375 345.199219 108.089844 C 345.230469 102.351562 345.132812 97.152344 343.332031 91.667969 C 343.167969 91.105469 343.003906 90.546875 342.84375 89.984375 C 341.390625 85.039062 338.832031 80.984375 335.601562 77.003906 C 335 76.25 335 76.25 334.167969 75 L 333.332031 75 L 333.332031 74.167969 L 332.5 74.167969 L 332.082031 72.917969 L 331.25 72.917969 L 331.25 72.082031 L 330.417969 72.082031 L 330.417969 71.25 C 329.796875 70.683594 329.796875 70.683594 329.011719 70.15625 L 328.21875 69.59375 L 327.5 69.167969 L 326.667969 69.167969 L 326.667969 68.332031 C 320.277344 63.046875 311.117188 60.421875 303.128906 59.011719 C 300.226562 58.558594 297.3125 58.59375 294.382812 58.632812 C 293.367188 58.644531 292.347656 58.648438 291.328125 58.652344 C 290.679688 58.65625 290.027344 58.660156 289.378906 58.664062 L 288.460938 58.671875 C 286.886719 58.671875 286.886719 58.671875 285.417969 59.167969 " fill-opacity="1" fill-rule="nonzero"/><path fill="#d9fc67" d="M 540.464844 438.265625 L 542.417969 438.261719 C 544.167969 438.253906 545.917969 438.25 547.667969 438.25 C 548.761719 438.25 549.859375 438.246094 550.953125 438.246094 C 554.390625 438.238281 557.828125 438.234375 561.265625 438.234375 C 565.21875 438.230469 569.171875 438.226562 573.121094 438.214844 C 576.191406 438.203125 579.257812 438.199219 582.328125 438.199219 C 584.152344 438.199219 585.980469 438.195312 587.808594 438.1875 C 589.523438 438.183594 591.242188 438.179688 592.957031 438.183594 C 593.585938 438.183594 594.214844 438.183594 594.839844 438.179688 C 598.226562 438.15625 601.425781 438.207031 604.582031 439.582031 C 605.859375 440.4375 605.859375 440.4375 606.847656 441.378906 L 607.863281 442.3125 C 608.859375 443.457031 609.449219 444.417969 610 445.832031 C 610.3125 448.363281 610.445312 451.105469 609.664062 453.558594 C 609.15625 454.4375 608.621094 455.101562 607.917969 455.832031 L 607.046875 456.742188 C 605.53125 458.199219 604.289062 459.273438 602.222656 459.828125 C 599.96875 460.222656 597.65625 460.128906 595.371094 460.132812 L 593.585938 460.144531 C 591.976562 460.15625 590.363281 460.164062 588.753906 460.167969 C 587.070312 460.175781 585.382812 460.1875 583.699219 460.195312 C 580.507812 460.214844 577.320312 460.230469 574.132812 460.246094 C 570.5 460.261719 566.867188 460.28125 563.238281 460.304688 C 555.769531 460.347656 548.300781 460.382812 540.832031 460.417969 L 540.835938 461.957031 C 540.839844 475.484375 540.847656 489.011719 540.855469 502.539062 L 540.855469 503.433594 C 540.859375 508.214844 540.863281 512.992188 540.867188 517.773438 C 540.871094 522.675781 540.871094 527.578125 540.871094 532.480469 C 540.871094 535.238281 540.875 537.992188 540.878906 540.746094 C 540.878906 543.335938 540.882812 545.929688 540.878906 548.519531 C 540.878906 549.472656 540.882812 550.425781 540.882812 551.375 C 540.886719 552.671875 540.886719 553.96875 540.882812 555.265625 L 540.886719 556.421875 L 540.882812 557.472656 L 540.886719 558.378906 C 540.832031 559.167969 540.832031 559.167969 540.417969 560.417969 L 541.40625 560.46875 C 543.53125 560.980469 545.332031 562.027344 547.082031 563.332031 L 547.082031 564.167969 L 548.011719 564.472656 C 550.160156 565.453125 551.480469 567.339844 552.917969 569.167969 C 556 573.585938 558.414062 578.183594 559.074219 583.585938 C 559.414062 588.765625 558.617188 593.929688 556.667969 598.75 C 555.628906 600.847656 554.320312 602.71875 552.917969 604.582031 L 552.214844 605.539062 C 549.726562 608.648438 545.886719 611.773438 542.230469 613.417969 C 536.839844 615.25 530.953125 616.574219 525.28125 615.519531 C 521.980469 614.851562 518.808594 614.125 515.832031 612.5 L 514.59375 611.839844 C 513.472656 611.234375 512.359375 610.621094 511.25 610 L 511.25 609.167969 L 510.546875 608.90625 C 509.21875 608.117188 508.457031 607.035156 507.5 605.832031 C 507.085938 605.414062 506.667969 604.996094 506.25 604.582031 C 504.148438 602.140625 503.242188 599.390625 502.179688 596.398438 C 501.808594 595.082031 501.808594 595.082031 501.25 594.582031 C 499.984375 589.230469 500.265625 584.117188 501.25 578.75 L 502.082031 578.75 L 502.316406 577.1875 C 503.140625 573.554688 505.277344 570.523438 507.707031 567.761719 C 510.269531 565.050781 513.503906 561.730469 517.082031 560.417969 C 517.777344 560.40625 518.472656 560.402344 519.167969 560.417969 L 519.164062 559.699219 C 519.148438 543.980469 519.132812 528.257812 519.121094 512.535156 L 519.121094 511.519531 C 519.117188 506.085938 519.109375 500.652344 519.101562 495.222656 C 519.09375 489.644531 519.089844 484.070312 519.089844 478.496094 C 519.085938 475.058594 519.082031 471.617188 519.078125 468.179688 C 519.074219 465.820312 519.070312 463.460938 519.070312 461.101562 C 519.074219 459.738281 519.070312 458.378906 519.066406 457.019531 C 519.0625 455.542969 519.0625 454.066406 519.066406 452.589844 L 519.058594 451.292969 C 519.070312 448.910156 519.316406 446.867188 520 444.582031 L 520.832031 444.582031 L 521.121094 443.671875 C 521.8125 442.191406 522.472656 441.453125 523.75 440.417969 C 528.714844 437.597656 534.9375 438.269531 540.464844 438.265625 M 523.75 580 C 522.554688 581.414062 521.660156 582.933594 520.832031 584.582031 C 520.566406 586.710938 520.535156 588.722656 521.246094 590.765625 C 522.054688 592.28125 522.894531 593.40625 524.25 594.472656 C 526.144531 595.5625 527.875 595.976562 530.050781 596.066406 C 531.984375 595.976562 533.492188 595.652344 535.160156 594.667969 C 536.167969 593.917969 536.824219 593.136719 537.5 592.082031 L 538.230469 591.042969 C 539.035156 588.785156 538.84375 586.539062 538.75 584.167969 L 537.917969 584.167969 L 537.8125 583.253906 C 537.546875 582.0625 537.546875 582.0625 536.902344 581.015625 C 535.347656 579.539062 533.722656 578.886719 531.667969 578.332031 C 528.8125 577.902344 526.121094 578.285156 523.75 580 " fill-opacity="1" fill-rule="nonzero"/></svg>