<svg xmlns="http://www.w3.org/2000/svg" xmlns:xlink="http://www.w3.org/1999/xlink" width="1000" zoomAndPan="magnify" viewBox="0 0 750 749.999995" height="1000" preserveAspectRatio="xMidYMid meet" version="1.0"><path fill="#ffffff" d="M 276.5625 38.914062 C 272.953125 39.644531 270 40.15625 270 40.054688 C 270 39.949219 267.976562 40.65625 265.5 41.625 C 263.023438 42.59375 261 43.269531 261 43.121094 C 261 42.5 246.898438 49.835938 241.980469 53.015625 C 231.992188 59.472656 218.261719 75.355469 213.234375 86.265625 C 212.214844 88.472656 211.40625 89.238281 210 89.316406 C 208.96875 89.375 207.113281 89.523438 205.875 89.652344 C 204.636719 89.78125 201.601562 90.082031 199.125 90.320312 C 196.648438 90.5625 193.949219 90.898438 193.125 91.070312 C 190.132812 91.691406 183.324219 93.625 181.125 94.480469 C 179.886719 94.960938 178.875 95.308594 178.875 95.25 C 178.875 95.191406 177.863281 95.539062 176.625 96.023438 C 175.386719 96.503906 174.039062 96.96875 173.625 97.054688 C 171.890625 97.414062 157.007812 105.359375 156 106.464844 C 155.792969 106.691406 153.9375 108.21875 151.875 109.859375 C 149.8125 111.5 146.664062 114.199219 144.878906 115.859375 C 143.09375 117.515625 141.324219 118.988281 140.941406 119.125 C 140.5625 119.261719 140.25 119.835938 140.25 120.402344 C 140.25 120.964844 139.816406 121.695312 139.289062 122.023438 C 137.808594 122.953125 130.050781 133.613281 127.585938 138.105469 C 123.542969 145.476562 119.464844 155.554688 117.824219 162.234375 C 115.746094 170.695312 115.441406 173.132812 115.082031 184.378906 C 114.804688 193.113281 114.6875 193.710938 112.964844 195.066406 C 111.960938 195.855469 110.914062 196.5 110.636719 196.5 C 109.253906 196.5 96.429688 207.207031 92.316406 211.792969 C 91.417969 212.796875 90.511719 213.796875 89.601562 214.792969 C 81.011719 224.042969 70.386719 244.605469 67.855469 256.875 C 65.453125 268.507812 64.695312 285.332031 66.300781 291.375 C 66.519531 292.199219 66.890625 294.226562 67.128906 295.875 C 67.769531 300.378906 68.042969 301.875 68.21875 301.875 C 68.304688 301.875 68.46875 302.550781 68.585938 303.375 C 68.703125 304.199219 69.035156 305.753906 69.328125 306.824219 C 69.757812 308.410156 69.449219 309.117188 67.695312 310.59375 C 62.828125 314.691406 52.59375 328.882812 47.484375 338.625 C 43.136719 346.910156 38.191406 361.03125 37.105469 368.25 C 36.917969 369.445312 36.703125 370.636719 36.453125 371.820312 C 35.585938 375.800781 34.496094 391.167969 34.855469 394.378906 C 35.070312 396.300781 35.382812 400.128906 35.542969 402.882812 C 35.707031 405.632812 36.023438 408.179688 36.246094 408.539062 C 36.46875 408.898438 36.84375 410.863281 37.085938 412.910156 C 38.492188 424.855469 45.261719 443.105469 52.601562 454.722656 C 58.386719 463.871094 68.257812 475.132812 75.234375 480.535156 C 76.941406 481.855469 77.203125 482.4375 76.597656 483.570312 C 73.457031 489.4375 71.179688 515.625 72.867188 526.5 C 73.28125 529.179688 73.695312 532.390625 73.78125 533.636719 C 73.871094 534.878906 74.164062 536.253906 74.433594 536.6875 C 74.703125 537.125 75.089844 538.300781 75.292969 539.300781 C 75.496094 540.304688 76.375 543.488281 77.246094 546.375 C 78.117188 549.261719 78.972656 552.273438 79.148438 553.070312 C 79.320312 553.867188 79.734375 554.707031 80.066406 554.945312 C 80.394531 555.183594 81.316406 556.894531 82.113281 558.75 C 90.167969 577.535156 108.488281 596.640625 129 607.644531 C 133.460938 610.039062 145.007812 614.816406 147.738281 615.394531 C 148.363281 615.527344 150.898438 616.140625 153.375 616.753906 C 155.851562 617.367188 158.746094 618.058594 159.8125 618.292969 C 161.507812 618.664062 161.90625 619.382812 163.054688 624.171875 C 164.59375 630.574219 170.042969 644.832031 173.433594 651.320312 C 177.753906 659.59375 186.175781 670.761719 193.972656 678.5625 C 198.199219 682.792969 201.84375 686.25 202.070312 686.25 C 202.429688 686.25 204.121094 687.460938 210.804688 692.484375 C 213.230469 694.308594 225.511719 701.25 226.3125 701.25 C 226.648438 701.25 229.636719 702.394531 232.953125 703.792969 C 239.234375 706.445312 248.472656 709.34375 252.417969 709.902344 C 253.675781 710.082031 257.222656 710.726562 260.292969 711.332031 C 266.957031 712.65625 295.945312 712.507812 299.625 711.136719 C 300.863281 710.671875 302.886719 710.144531 304.125 709.960938 C 305.363281 709.773438 306.542969 709.558594 306.75 709.476562 C 306.957031 709.394531 307.460938 709.277344 307.875 709.214844 C 312.476562 708.539062 325.835938 702.21875 333.367188 697.148438 C 345.101562 689.25 356.757812 674.457031 361.742188 661.125 C 366.320312 648.890625 365.996094 672.242188 365.800781 368.25 L 365.625 90.375 L 363.480469 84.375 C 358.875 71.5 352.570312 62.351562 342.449219 53.847656 C 337.773438 49.925781 324.324219 42.425781 320.621094 41.683594 C 319.796875 41.519531 317.507812 40.832031 315.535156 40.152344 C 310.039062 38.269531 308.054688 38.039062 295.125 37.800781 C 285.894531 37.632812 281.609375 37.886719 276.5625 38.914062 M 285.5 59 C 285.308594 59.191406 284.019531 59.484375 282.636719 59.648438 C 279.824219 59.980469 279.277344 60.101562 274.5 61.445312 C 272.644531 61.96875 270.703125 62.742188 270.1875 63.164062 C 269.671875 63.589844 269.25 63.683594 269.25 63.378906 C 269.25 63.074219 268.417969 63.371094 267.402344 64.039062 C 266.382812 64.703125 265.164062 65.25 264.6875 65.25 C 263.699219 65.25 255.132812 70.308594 253.632812 71.78125 C 253.089844 72.3125 252.386719 72.75 252.078125 72.75 C 251.28125 72.75 242.363281 81.621094 239.460938 85.292969 C 235.875 89.835938 233.015625 94.976562 230.714844 101.003906 C 228.375 107.140625 225.867188 110.054688 222.476562 110.578125 C 221.183594 110.773438 215.902344 111.097656 210.738281 111.296875 C 193.421875 111.953125 182.324219 115.632812 167.628906 125.582031 C 158.761719 131.585938 150.390625 141.339844 144.933594 152.03125 C 141.878906 158.019531 138.949219 166.050781 138.402344 169.9375 C 138.234375 171.140625 137.699219 174.824219 137.214844 178.125 C 136.65625 181.945312 136.515625 187.707031 136.828125 193.992188 L 137.324219 203.863281 L 134.992188 206.519531 C 133.707031 207.984375 131.917969 209.410156 131.015625 209.695312 C 129.457031 210.1875 119.398438 216.644531 117 218.691406 C 106.136719 227.964844 99.898438 235.679688 95.148438 245.710938 C 91.820312 252.75 88.105469 263.855469 88.835938 264.585938 C 89.011719 264.761719 88.804688 265.796875 88.378906 266.890625 C 87.609375 268.871094 87.320312 289.695312 88.050781 290.878906 C 88.261719 291.21875 88.628906 292.652344 88.867188 294.0625 C 89.621094 298.53125 91.511719 305.484375 92.203125 306.320312 C 93.246094 307.585938 93.964844 312.542969 93.417969 314.722656 C 93.140625 315.820312 89.933594 319.597656 86.230469 323.191406 C 69.851562 339.058594 60.902344 356.628906 58.109375 378.375 C 56.507812 390.859375 57.953125 413.535156 60.648438 418.125 C 60.890625 418.539062 61.199219 419.71875 61.339844 420.75 C 61.71875 423.605469 66.484375 435.132812 69.464844 440.417969 C 76.804688 453.429688 88.707031 464.972656 102.75 472.6875 C 108.359375 475.773438 116.476562 479.253906 119.207031 479.75 C 120.234375 479.9375 121.511719 480.449219 122.039062 480.886719 C 122.566406 481.324219 123 481.488281 123 481.25 C 123 481.011719 124.273438 481.265625 125.828125 481.8125 C 127.382812 482.363281 130.503906 483.078125 132.765625 483.40625 C 135.027344 483.734375 137.550781 484.125 138.375 484.273438 C 142.15625 484.96875 161.339844 485.089844 165.375 484.445312 C 173.917969 483.082031 175.132812 482.894531 177.644531 482.554688 C 179.03125 482.367188 180.800781 481.875 181.582031 481.457031 C 182.363281 481.039062 183 480.859375 183 481.054688 C 183 481.875 202.425781 474.621094 204.59375 472.992188 C 205.125 472.59375 207.152344 471.480469 209.09375 470.523438 C 212.835938 468.675781 215.382812 467.167969 216 466.425781 C 216.207031 466.175781 217.175781 465.554688 218.152344 465.039062 C 220.039062 464.042969 228.414062 457.851562 230.179688 456.144531 C 232.800781 453.609375 238.605469 452.992188 242.226562 454.863281 C 247.394531 457.535156 249.492188 465.023438 246.398438 469.734375 C 244.875 472.058594 236.890625 478.6875 229.875 483.457031 C 220.0625 490.125 196.632812 500.507812 187.5 502.234375 C 185.414062 502.628906 179.6875 503.914062 177.375 504.511719 C 172.308594 505.816406 154.605469 506.699219 145.125 506.125 C 134.820312 505.496094 131.550781 505.050781 124.125 503.269531 C 122.0625 502.777344 119.632812 502.226562 118.726562 502.050781 C 115.816406 501.492188 103.992188 497.140625 100.296875 495.269531 C 97.300781 493.753906 96.648438 493.640625 96.292969 494.570312 C 96.058594 495.179688 96.070312 496.007812 96.320312 496.414062 C 96.570312 496.816406 96.472656 497.335938 96.101562 497.5625 C 93.984375 498.871094 93.355469 522.078125 95.222656 529.875 C 95.71875 531.9375 96.234375 534.15625 96.367188 534.804688 C 98.539062 545.292969 106.457031 560.367188 114.425781 569.171875 C 118.011719 573.140625 126.328125 580.523438 129.714844 582.75 C 130.835938 583.496094 131.9375 584.269531 133.023438 585.066406 C 135.085938 586.601562 143.453125 590.597656 144.1875 590.402344 C 144.496094 590.316406 144.75 590.644531 144.75 591.125 C 144.75 591.605469 144.972656 591.777344 145.242188 591.507812 C 145.515625 591.234375 146.105469 591.300781 146.554688 591.65625 C 147.574219 592.453125 155.390625 594.921875 162.75 596.765625 C 163.367188 596.921875 166.238281 597.386719 169.125 597.804688 C 175.714844 598.75 178.160156 599.707031 180.023438 602.074219 C 181.714844 604.222656 183.097656 608.777344 183.382812 613.125 C 183.492188 614.773438 184.011719 617.644531 184.539062 619.5 C 185.070312 621.355469 185.574219 623.210938 185.65625 623.625 C 187.75 633.75 198.347656 652.03125 207.378906 661.101562 C 220.28125 674.0625 231.507812 680.851562 249.648438 686.667969 C 256.035156 688.714844 257.609375 689.039062 268.125 690.472656 C 277.304688 691.726562 297.410156 690.28125 303 687.96875 C 303.617188 687.714844 304.292969 687.464844 304.5 687.414062 C 307.007812 686.8125 313.464844 683.785156 317.753906 681.199219 C 329.523438 674.105469 338.242188 663.695312 341.824219 652.453125 C 344.9375 642.664062 345 641.664062 345 600.230469 L 345 559.875 L 310.457031 560.078125 C 279.699219 560.257812 275.628906 560.144531 273.316406 559.046875 C 270.078125 557.511719 268.023438 554.683594 267.078125 550.46875 C 266.414062 547.527344 266.539062 546.925781 268.359375 544.246094 C 272.367188 538.339844 271.207031 538.5 310.300781 538.5 L 345 538.5 L 345 356.207031 L 307.3125 356.300781 C 286.585938 356.351562 268.78125 356.1875 267.75 355.933594 C 266.71875 355.679688 264.863281 355.355469 263.625 355.210938 C 262.386719 355.066406 260.023438 354.585938 258.375 354.136719 C 256.726562 353.6875 254.53125 353.148438 253.5 352.933594 C 246.226562 351.433594 235.082031 346.40625 226.949219 340.953125 C 224.117188 339.054688 221.679688 337.5 221.53125 337.5 C 221.179688 337.5 218.226562 334.992188 213.320312 330.523438 C 205.128906 323.0625 195.371094 308.171875 191.007812 296.472656 C 188.160156 288.835938 188.046875 288.496094 187.761719 286.875 C 184.714844 269.53125 184.371094 257.417969 186.78125 252.691406 C 188.371094 249.570312 191.589844 247.125 195.121094 246.347656 C 197.875 245.742188 201.941406 247.75 204.34375 250.902344 C 206.0625 253.152344 206.296875 254.265625 206.601562 261.519531 C 206.785156 265.980469 207.128906 270.804688 207.367188 272.25 C 207.601562 273.695312 207.914062 275.886719 208.058594 277.125 C 209.101562 286.0625 214.335938 298.125 220.917969 306.75 C 224.957031 312.046875 235.332031 321.75 236.953125 321.75 C 237.332031 321.75 238.101562 322.171875 238.664062 322.6875 C 240.609375 324.476562 250.261719 329.558594 253.332031 330.417969 C 254.457031 330.730469 255.710938 331.085938 256.125 331.210938 C 268.195312 334.875 265.707031 334.683594 306.5625 335.058594 L 345 335.414062 L 345 235.503906 L 310.222656 235.515625 C 291.097656 235.523438 274.8125 235.304688 274.035156 235.027344 C 268.679688 233.132812 265.210938 225.824219 267.496094 221.242188 C 268.707031 218.808594 273.75 213.726562 273.75 214.9375 C 273.75 215.210938 274.179688 215.078125 274.703125 214.644531 C 275.34375 214.109375 286.949219 213.898438 310.335938 213.988281 L 345.019531 214.125 L 344.789062 155.625 C 344.667969 123.449219 344.378906 96.28125 344.152344 95.25 C 341.851562 84.714844 335.59375 75.292969 326.476562 68.636719 C 323.359375 66.363281 320.425781 64.5 319.957031 64.5 C 319.488281 64.5 317.863281 63.835938 316.347656 63.023438 C 314.832031 62.210938 312.8125 61.394531 311.859375 61.207031 C 310.90625 61.019531 307.851562 60.328125 305.074219 59.667969 C 300.480469 58.582031 286.398438 58.101562 285.5 59 " fill-opacity="1" fill-rule="evenodd"/><path fill="#d9fc67" d="M 443.878906 37.835938 L 445.335938 37.816406 C 447.566406 37.796875 449.796875 37.78125 452.027344 37.769531 C 453.1875 37.765625 454.351562 37.753906 455.511719 37.738281 C 466.585938 37.574219 476.878906 38.957031 487.28125 42.917969 L 488.816406 43.492188 C 490.945312 44.335938 492.894531 45.269531 494.777344 46.578125 C 495.664062 47.140625 495.664062 47.140625 496.898438 47.613281 C 499.007812 48.492188 500.929688 49.683594 502.882812 50.859375 L 504.046875 51.542969 L 505.144531 52.203125 L 506.148438 52.800781 L 506.867188 53.332031 L 506.867188 54.167969 L 508.53125 54.167969 L 508.53125 55 L 509.230469 55.308594 C 512.507812 57.082031 515.726562 60.058594 518.117188 62.917969 L 518.117188 63.75 L 518.871094 64.089844 C 519.78125 64.582031 520.371094 65.039062 521.03125 65.832031 L 521.03125 66.667969 L 521.867188 66.667969 C 522.554688 67.476562 523.214844 68.3125 523.84375 69.167969 L 524.40625 69.914062 C 524.78125 70.410156 525.148438 70.902344 525.519531 71.398438 C 525.960938 71.984375 526.410156 72.566406 526.863281 73.140625 L 527.542969 74.011719 L 528.132812 74.757812 L 528.53125 75.417969 L 528.53125 76.667969 L 529.367188 76.667969 L 530.085938 77.949219 L 531.058594 79.6875 L 531.570312 80.601562 C 532.371094 82.023438 533.175781 83.445312 534.015625 84.84375 C 534.277344 85.28125 534.539062 85.722656 534.808594 86.171875 L 535.527344 87.351562 C 536.03125 88.332031 536.03125 88.332031 536.03125 89.582031 L 536.894531 89.554688 C 543.269531 89.441406 549.609375 89.964844 555.761719 91.667969 C 557.234375 92.070312 558.703125 92.386719 560.199219 92.683594 C 568.25 94.378906 575.84375 97.460938 583.117188 101.25 C 583.671875 101.53125 584.226562 101.808594 584.78125 102.082031 L 584.78125 102.917969 L 585.675781 103.03125 C 587.105469 103.394531 588.023438 104.003906 589.234375 104.84375 L 590.5625 105.757812 L 591.867188 106.667969 L 592.984375 107.433594 C 598.089844 110.949219 598.089844 110.949219 599.78125 112.5 L 599.78125 113.332031 L 600.441406 113.59375 C 601.890625 114.417969 603.023438 115.507812 604.234375 116.640625 L 605.019531 117.371094 C 606.929688 119.179688 608.605469 121.066406 610.226562 123.140625 C 610.9375 124.046875 611.679688 124.886719 612.464844 125.730469 C 616.503906 130.324219 619.433594 135.875 622.28125 141.25 L 622.707031 142.050781 C 629.828125 155.554688 633.773438 171.597656 633.578125 186.886719 C 633.511719 188.386719 633.335938 189.839844 633.117188 191.328125 L 632.882812 192.960938 L 632.699219 194.167969 C 632.996094 194.273438 633.292969 194.382812 633.601562 194.496094 C 635.671875 195.378906 637.488281 196.6875 639.367188 197.917969 L 640.21875 198.449219 C 640.78125 198.804688 641.328125 199.191406 641.867188 199.582031 L 641.867188 200.417969 L 643.089844 200.753906 L 644.367188 201.25 L 644.78125 202.5 C 645.328125 202.796875 645.882812 203.074219 646.449219 203.332031 C 647.121094 203.804688 647.78125 204.289062 648.429688 204.792969 L 649.4375 205.558594 L 650.199219 206.25 L 650.199219 207.082031 L 650.9375 207.410156 C 651.941406 207.957031 652.625 208.5625 653.429688 209.375 L 654.203125 210.144531 L 654.78125 210.832031 L 654.78125 211.667969 L 655.589844 212.003906 L 656.449219 212.5 L 656.867188 213.75 L 657.699219 213.75 C 658.3125 214.433594 658.902344 215.136719 659.46875 215.859375 C 660.539062 217.199219 661.601562 218.523438 662.75 219.792969 C 664.355469 221.652344 665.59375 223.742188 666.867188 225.832031 L 667.308594 226.550781 C 670.460938 231.671875 673.527344 236.839844 675.617188 242.5 L 676.132812 243.796875 C 677.140625 246.328125 677.992188 248.835938 678.667969 251.472656 C 678.957031 252.601562 678.957031 252.601562 679.574219 254.035156 C 680.535156 256.480469 680.871094 259.121094 681.308594 261.703125 C 681.429688 262.382812 681.5625 263.058594 681.699219 263.734375 C 682.5 267.867188 682.582031 272.054688 682.699219 276.25 L 682.734375 277.386719 C 683.039062 288.074219 681.027344 298.402344 678.53125 308.75 L 679.535156 309.632812 L 680.824219 310.78125 L 681.488281 311.363281 C 682.046875 311.863281 682.582031 312.386719 683.117188 312.917969 L 683.117188 313.75 L 683.949219 313.75 L 683.949219 314.582031 L 684.78125 314.582031 C 685.308594 315.140625 685.308594 315.140625 685.902344 315.929688 L 686.570312 316.804688 L 687.28125 317.761719 L 688.015625 318.730469 C 695.25 328.363281 701.90625 338.628906 705.542969 350.207031 C 706.015625 351.679688 706.015625 351.679688 706.652344 353.101562 C 707.332031 354.695312 707.84375 356.28125 708.324219 357.941406 L 708.597656 358.878906 C 709.828125 363.199219 710.664062 367.601562 711.449219 372.019531 C 711.71875 373.554688 711.71875 373.554688 712.28125 375 C 712.371094 376.121094 712.4375 377.234375 712.492188 378.359375 C 712.582031 380.214844 712.6875 382.050781 712.917969 383.890625 C 714.707031 399.335938 712.109375 418.207031 706.097656 432.566406 C 705.625 433.726562 705.199219 434.898438 704.777344 436.078125 C 702.210938 443.175781 698.550781 449.972656 694.367188 456.25 L 693.53125 456.25 L 693.429688 456.925781 C 693.007812 458.265625 692.25 459.285156 691.449219 460.417969 L 690.71875 461.503906 L 689.9375 462.65625 C 689.695312 463.019531 689.449219 463.382812 689.195312 463.757812 C 688.976562 464.03125 688.757812 464.304688 688.53125 464.582031 L 687.699219 464.582031 L 687.453125 465.4375 C 686.636719 467.148438 685.441406 468.332031 684.132812 469.6875 L 683.339844 470.519531 C 682.574219 471.320312 681.804688 472.121094 681.03125 472.917969 L 680.40625 473.570312 C 678.183594 475.890625 678.183594 475.890625 677.28125 476.667969 L 676.449219 476.667969 L 675.617188 478.332031 L 674.78125 478.332031 L 674.78125 479.167969 C 674.175781 479.796875 674.175781 479.796875 673.375 480.46875 L 672.585938 481.148438 L 671.867188 481.667969 L 671.03125 481.667969 L 671.445312 482.933594 C 674.453125 492.304688 674.453125 492.304688 674.367188 496.667969 C 674.617188 497.648438 674.890625 498.621094 675.199219 499.582031 C 678.179688 510.21875 677.070312 524.382812 674.367188 535 C 674.230469 535.609375 674.09375 536.21875 673.957031 536.828125 C 672.59375 542.863281 670.933594 548.671875 668.230469 554.257812 C 667.765625 555.269531 667.367188 556.28125 666.96875 557.324219 C 665.972656 559.828125 664.722656 562.167969 663.429688 564.53125 L 662.695312 565.871094 C 661.03125 568.890625 659.324219 571.800781 657.28125 574.582031 L 656.691406 575.390625 C 655.242188 577.359375 653.785156 579.320312 652.28125 581.25 L 651.699219 582.003906 C 651.21875 582.601562 650.710938 583.179688 650.199219 583.75 L 649.367188 583.75 L 649.042969 584.480469 C 648.480469 585.511719 647.851562 586.207031 647.023438 587.039062 L 646.132812 587.933594 L 645.199219 588.855469 L 644.269531 589.796875 L 643.375 590.683594 L 642.558594 591.496094 L 641.867188 592.082031 L 641.03125 592.082031 L 641.03125 592.917969 L 640.199219 592.917969 C 640.109375 593.15625 640.015625 593.398438 639.921875 593.644531 C 639.191406 594.878906 638.304688 595.441406 637.125 596.25 C 635.644531 597.273438 634.375 598.296875 633.117188 599.582031 L 631.867188 600.417969 L 630.617188 600.417969 L 630.617188 601.25 C 629.929688 601.789062 629.929688 601.789062 629.027344 602.34375 L 628.132812 602.90625 C 627.28125 603.332031 627.28125 603.332031 626.03125 603.332031 L 626.03125 604.167969 C 625 604.886719 625 604.886719 623.636719 605.675781 L 622.289062 606.472656 C 621.03125 607.082031 621.03125 607.082031 619.367188 607.082031 L 619.367188 607.917969 C 617.585938 608.757812 615.800781 609.59375 614.015625 610.417969 C 613.4375 610.6875 612.859375 610.953125 612.28125 611.222656 C 608.324219 613.066406 604.382812 614.453125 600.179688 615.605469 C 599.003906 615.9375 597.84375 616.316406 596.683594 616.691406 C 593.328125 617.738281 589.886719 618.441406 586.449219 619.167969 L 586.277344 619.984375 C 584.714844 627.109375 582.917969 634.226562 579.78125 640.832031 C 579.484375 641.53125 579.183594 642.226562 578.886719 642.925781 C 578.167969 644.605469 577.425781 646.273438 576.683594 647.941406 L 576.203125 649.042969 C 575.316406 651.027344 574.363281 652.796875 573.117188 654.582031 C 572.769531 655.238281 572.429688 655.898438 572.101562 656.5625 C 567.789062 664.550781 561.441406 671.789062 555.199219 678.332031 L 554.289062 679.304688 L 553.53125 680 L 552.699219 680 L 552.699219 680.832031 L 551.867188 680.832031 L 551.867188 681.667969 C 551.296875 682.253906 551.296875 682.253906 550.484375 682.941406 L 549.574219 683.71875 C 547.707031 685.269531 545.84375 686.816406 543.949219 688.332031 L 543.03125 689.070312 L 542.28125 689.582031 L 541.449219 689.582031 L 541.449219 690.417969 C 540.679688 691.007812 540.679688 691.007812 539.605469 691.6875 L 538.414062 692.441406 L 537.152344 693.230469 L 535.945312 693.996094 C 531.886719 696.554688 527.710938 698.804688 523.375 700.859375 L 522.222656 701.40625 C 519.371094 702.746094 516.507812 703.945312 513.53125 705 L 512.039062 705.542969 C 510.597656 706.0625 509.148438 706.578125 507.699219 707.082031 L 506.835938 707.386719 C 504.519531 708.179688 502.1875 708.816406 499.808594 709.402344 L 498.761719 709.664062 C 479.324219 714.480469 457.816406 714.402344 438.53125 708.996094 C 437.148438 708.585938 435.820312 708.085938 434.5 707.507812 C 433.34375 707 432.167969 706.578125 430.980469 706.144531 C 422.003906 702.699219 414.230469 697.359375 406.867188 691.25 L 405.976562 690.515625 C 403.554688 688.464844 401.117188 686.257812 399.785156 683.332031 L 398.949219 683.332031 L 398.949219 682.5 L 398.117188 682.5 C 397.578125 681.890625 397.578125 681.890625 397.023438 681.09375 L 396.460938 680.304688 L 396.03125 679.582031 L 396.03125 678.75 L 395.199219 678.75 L 394.367188 676.667969 L 393.53125 676.667969 C 391.992188 673.886719 390.511719 671.085938 389.105469 668.234375 C 388.769531 667.5625 388.433594 666.894531 388.078125 666.230469 C 383.132812 656.914062 382.15625 646.859375 382.179688 636.535156 L 382.175781 633.707031 C 382.171875 631.113281 382.171875 628.519531 382.175781 625.929688 C 382.179688 623.398438 382.175781 620.867188 382.175781 618.339844 C 382.171875 613.105469 382.167969 607.867188 382.171875 602.632812 C 382.175781 597.328125 382.175781 592.027344 382.171875 586.722656 L 382.171875 581.609375 C 382.167969 568.898438 382.167969 556.183594 382.167969 543.472656 L 382.167969 541.1875 C 382.171875 525.835938 382.171875 510.484375 382.171875 495.132812 L 382.167969 469.203125 L 382.167969 468.007812 C 382.167969 455.464844 382.167969 442.925781 382.171875 430.382812 L 382.171875 429.148438 L 382.175781 409.332031 C 382.183594 376.527344 382.183594 343.726562 382.171875 310.925781 L 382.171875 309.691406 C 382.167969 288.105469 382.167969 266.546875 382.171875 245.007812 L 382.171875 233.433594 C 382.171875 221.949219 382.171875 210.460938 382.167969 198.976562 L 382.167969 196.695312 C 382.167969 182.65625 382.167969 168.617188 382.171875 154.582031 L 382.175781 153.570312 C 382.175781 148.28125 382.175781 142.992188 382.171875 137.703125 C 382.167969 132.5 382.171875 127.300781 382.175781 122.097656 C 382.175781 119.316406 382.175781 116.535156 382.175781 113.753906 C 382.171875 111.222656 382.171875 108.6875 382.175781 106.15625 C 382.175781 105.25 382.175781 104.339844 382.175781 103.429688 C 382.160156 97.367188 382.230469 91.382812 384.078125 85.546875 L 384.355469 84.652344 C 385.167969 82.058594 386.15625 79.558594 387.28125 77.082031 L 387.96875 75.574219 C 388.570312 74.269531 389.171875 72.964844 389.78125 71.667969 L 390.617188 71.667969 L 390.851562 70.675781 C 391.6875 68.570312 392.910156 66.738281 394.367188 65 L 395.199219 65 L 395.539062 64.269531 C 396.046875 63.308594 396.574219 62.492188 397.28125 61.667969 L 398.117188 61.667969 L 398.441406 60.945312 C 398.996094 59.914062 399.636719 59.109375 400.40625 58.230469 L 401.175781 57.335938 L 401.867188 56.667969 L 402.699219 56.667969 L 402.699219 55.832031 C 403.386719 55.21875 403.386719 55.21875 404.289062 54.558594 L 405.183594 53.890625 C 406.03125 53.332031 406.03125 53.332031 407.28125 52.917969 L 407.28125 52.082031 C 407.890625 51.613281 407.890625 51.613281 408.75 51.101562 L 409.695312 50.527344 C 410.035156 50.328125 410.371094 50.128906 410.71875 49.921875 L 411.761719 49.300781 C 412.449219 48.886719 413.140625 48.476562 413.835938 48.066406 C 414.628906 47.59375 415.417969 47.109375 416.203125 46.621094 C 419.09375 44.859375 422.023438 43.644531 425.199219 42.5 C 425.722656 42.292969 426.242188 42.085938 426.761719 41.875 C 430.886719 40.226562 435.011719 39.191406 439.367188 38.332031 L 440.355469 38.109375 C 441.546875 37.898438 442.667969 37.851562 443.878906 37.835938 M 423.117188 67.917969 L 421.75 68.800781 C 420.308594 69.761719 420.308594 69.761719 418.949219 70.832031 L 418.949219 71.667969 L 418.253906 71.953125 C 416.996094 72.660156 416.113281 73.5625 415.09375 74.582031 L 413.96875 75.703125 L 413.117188 76.667969 L 413.117188 77.5 L 412.28125 77.5 C 411.582031 78.433594 410.914062 79.386719 410.277344 80.363281 L 409.710938 81.230469 C 408.3125 83.382812 407.0625 85.558594 406.035156 87.917969 L 405.664062 88.734375 C 403.546875 93.808594 403.808594 99.414062 403.777344 104.804688 C 403.769531 105.640625 403.761719 106.480469 403.753906 107.320312 C 403.730469 109.550781 403.714844 111.78125 403.699219 114.011719 C 403.6875 115.855469 403.671875 117.695312 403.652344 119.535156 C 403.554688 130.488281 403.480469 141.445312 403.546875 152.398438 C 403.566406 156.257812 403.503906 160.0625 403.167969 163.90625 L 403.117188 165 L 403.53125 165.417969 C 404.3125 165.457031 405.09375 165.46875 405.875 165.464844 L 407.417969 165.46875 L 409.125 165.464844 L 410.914062 165.464844 C 412.535156 165.464844 414.152344 165.460938 415.773438 165.457031 C 417.46875 165.457031 419.160156 165.457031 420.851562 165.457031 C 424.058594 165.453125 427.265625 165.449219 430.472656 165.445312 C 434.121094 165.441406 437.769531 165.441406 441.421875 165.4375 C 448.929688 165.433594 456.441406 165.425781 463.949219 165.417969 L 464.53125 164.21875 L 465.308594 162.640625 L 465.6875 161.855469 C 467.632812 157.917969 470.488281 154.765625 473.949219 152.082031 C 474.90625 151.460938 475.851562 150.9375 476.867188 150.417969 L 476.867188 149.582031 L 477.699219 149.453125 C 478.714844 149.222656 479.578125 148.945312 480.539062 148.566406 C 486.496094 146.308594 492.652344 146.40625 498.875 147.332031 C 500.597656 147.652344 502.21875 148.199219 503.84375 148.832031 C 504.8125 149.238281 504.8125 149.238281 506.03125 149.167969 L 506.03125 150 L 506.75 150.367188 C 511.589844 152.9375 514.722656 156.578125 517.65625 161.175781 C 518.09375 162.042969 518.433594 162.898438 518.769531 163.808594 L 519.109375 164.71875 L 519.367188 165.417969 L 520.550781 165.425781 C 524.234375 165.449219 527.917969 165.476562 531.601562 165.515625 C 533.496094 165.535156 535.390625 165.550781 537.285156 165.5625 C 539.113281 165.570312 540.941406 165.589844 542.769531 165.609375 C 543.46875 165.617188 544.164062 165.621094 544.859375 165.625 C 545.839844 165.628906 546.816406 165.640625 547.796875 165.652344 L 548.660156 165.652344 C 550.734375 165.691406 552.125 166.175781 553.949219 167.082031 C 555.625 168.160156 556.589844 169.441406 557.652344 171.085938 C 559.230469 174.480469 559.070312 177.964844 559.058594 181.632812 L 559.0625 183.511719 C 559.066406 185.210938 559.0625 186.90625 559.0625 188.605469 C 559.058594 190.386719 559.0625 192.167969 559.0625 193.953125 C 559.0625 196.949219 559.0625 199.945312 559.058594 202.941406 C 559.054688 206.390625 559.054688 209.84375 559.058594 213.292969 C 559.0625 216.265625 559.066406 219.238281 559.0625 222.210938 C 559.058594 223.984375 559.0625 225.753906 559.0625 227.523438 C 559.066406 229.191406 559.0625 230.859375 559.058594 232.53125 C 559.058594 233.136719 559.058594 233.746094 559.058594 234.351562 C 559.085938 243.894531 559.085938 243.894531 557.476562 247.113281 C 556.445312 248.769531 555.484375 249.917969 553.761719 250.855469 C 551.652344 251.878906 549.613281 252.042969 547.292969 252.183594 L 545.925781 252.277344 C 540.246094 252.632812 534.5625 252.609375 528.875 252.589844 C 527.234375 252.585938 525.589844 252.585938 523.949219 252.585938 C 521.117188 252.585938 518.28125 252.582031 515.449219 252.574219 C 511.347656 252.566406 507.25 252.5625 503.148438 252.5625 C 496.488281 252.558594 489.828125 252.550781 483.167969 252.539062 L 481.964844 252.539062 L 480.761719 252.535156 C 475.109375 252.527344 469.457031 252.519531 463.808594 252.515625 L 462.597656 252.511719 C 455.953125 252.503906 449.304688 252.5 442.660156 252.496094 C 438.566406 252.492188 434.476562 252.488281 430.386719 252.480469 C 427.585938 252.476562 424.789062 252.472656 421.992188 252.46875 C 420.378906 252.46875 418.765625 252.464844 417.152344 252.460938 C 415.402344 252.457031 413.65625 252.457031 411.90625 252.457031 L 410.363281 252.449219 L 408.9375 252.453125 L 407.71875 252.449219 C 406.175781 252.511719 404.644531 252.726562 403.117188 252.917969 L 403.117188 282.917969 L 552.28125 282.917969 L 551.867188 280 L 552.699219 280 L 553.402344 278.6875 C 555.824219 274.230469 558.175781 270.011719 562.503906 267.148438 L 563.117188 266.667969 L 563.117188 265.832031 L 563.820312 265.703125 C 564.816406 265.453125 564.816406 265.453125 565.710938 264.84375 C 566.996094 264.089844 568.28125 263.589844 569.679688 263.074219 C 571.308594 262.574219 571.308594 262.574219 572.699219 261.667969 C 573.515625 261.578125 574.332031 261.511719 575.148438 261.457031 C 576.527344 261.367188 577.636719 261.273438 578.949219 260.832031 C 585.917969 261.261719 591.449219 262.664062 597.4375 266.269531 C 598.15625 266.703125 598.15625 266.703125 599.113281 267.144531 L 599.78125 267.5 C 600.304688 268.386719 600.304688 268.386719 600.617188 269.167969 L 601.449219 269.167969 L 601.761719 269.871094 C 602.261719 270.863281 602.261719 270.863281 603.011719 271.746094 C 605.96875 275.441406 608.140625 279.445312 608.949219 284.167969 C 609.433594 290.898438 609.207031 297.121094 606.304688 303.277344 C 605.71875 304.328125 605.078125 305.28125 604.367188 306.25 L 603.550781 307.386719 C 600.320312 311.613281 596.386719 314.492188 591.507812 316.578125 C 586.40625 318.554688 581.074219 319.21875 575.640625 318.410156 C 574.800781 318.253906 573.957031 318.085938 573.117188 317.917969 L 572.003906 317.746094 C 567.894531 317.085938 564.625 315.066406 561.320312 312.613281 C 559.777344 311.308594 558.480469 309.84375 557.191406 308.292969 L 556.449219 307.5 L 555.617188 307.5 L 555.484375 306.535156 C 555.277344 305.4375 555.277344 305.4375 554.714844 304.730469 C 553.953125 304.074219 553.953125 304.074219 552.8125 304.015625 L 551.40625 304.019531 L 549.796875 304.015625 L 548.023438 304.03125 C 547.402344 304.03125 546.78125 304.03125 546.160156 304.03125 C 544.820312 304.035156 543.476562 304.039062 542.136719 304.046875 C 540.011719 304.058594 537.886719 304.066406 535.761719 304.066406 C 532.394531 304.074219 529.027344 304.085938 525.65625 304.101562 C 519.644531 304.125 513.632812 304.140625 507.621094 304.15625 C 505.515625 304.160156 503.410156 304.167969 501.304688 304.175781 C 499.984375 304.183594 498.664062 304.1875 497.34375 304.191406 C 496.738281 304.191406 496.132812 304.195312 495.527344 304.199219 C 491.882812 304.222656 488.292969 304.101562 484.667969 303.800781 C 483.25 303.753906 482.007812 303.867188 480.613281 304.066406 C 479.257812 304.230469 477.910156 304.214844 476.542969 304.214844 L 475.609375 304.214844 C 474.585938 304.214844 473.5625 304.210938 472.539062 304.207031 L 470.328125 304.207031 C 468.746094 304.203125 467.164062 304.203125 465.578125 304.199219 C 463.078125 304.191406 460.574219 304.1875 458.074219 304.1875 C 452.765625 304.183594 447.460938 304.175781 442.152344 304.167969 C 436.417969 304.15625 430.679688 304.148438 424.941406 304.144531 C 422.453125 304.140625 419.964844 304.136719 417.476562 304.132812 C 415.933594 304.128906 414.386719 304.128906 412.84375 304.128906 C 412.125 304.125 411.410156 304.125 410.691406 304.121094 C 409.714844 304.121094 408.734375 304.117188 407.757812 304.121094 L 406.097656 304.117188 C 404.773438 304.105469 404.773438 304.105469 403.53125 304.582031 L 403.542969 306 C 403.554688 310.183594 403.519531 314.367188 403.425781 318.546875 L 403.398438 320.007812 C 403.351562 322 403.308594 323.996094 403.261719 325.992188 C 403.230469 327.46875 403.199219 328.945312 403.167969 330.421875 L 403.132812 331.800781 L 403.109375 333.058594 L 403.082031 334.167969 L 403.117188 335 L 403.53125 335.417969 C 404.253906 335.457031 404.972656 335.464844 405.695312 335.464844 L 407.121094 335.464844 L 408.710938 335.460938 L 410.386719 335.460938 C 411.925781 335.460938 413.464844 335.457031 415.003906 335.453125 C 416.664062 335.449219 418.320312 335.449219 419.976562 335.445312 C 422.855469 335.445312 425.730469 335.441406 428.605469 335.433594 C 432.769531 335.429688 436.929688 335.425781 441.09375 335.421875 C 447.851562 335.417969 454.609375 335.410156 461.371094 335.402344 L 462.597656 335.402344 C 468.335938 335.394531 474.078125 335.386719 479.816406 335.378906 L 481.039062 335.375 L 482.261719 335.375 C 488.992188 335.367188 495.71875 335.359375 502.449219 335.355469 C 506.597656 335.351562 510.75 335.347656 514.898438 335.339844 C 517.746094 335.332031 520.59375 335.332031 523.441406 335.332031 C 525.082031 335.332031 526.722656 335.328125 528.367188 335.324219 C 529.871094 335.316406 531.375 335.316406 532.878906 335.320312 C 533.679688 335.320312 534.476562 335.316406 535.273438 335.3125 C 538.09375 335.320312 540.816406 335.433594 543.535156 336.25 C 545.582031 337.453125 547.15625 339.058594 548.347656 341.121094 C 549.113281 342.976562 549.488281 344.679688 549.390625 346.691406 C 549.019531 348.984375 548.230469 351.03125 546.867188 352.917969 C 545.832031 353.808594 544.769531 354.421875 543.535156 355 L 542.492188 355.519531 C 540.007812 356.265625 537.417969 356.3125 534.839844 356.296875 L 533.894531 356.296875 C 532.851562 356.296875 531.808594 356.292969 530.765625 356.289062 L 528.507812 356.289062 C 526.878906 356.289062 525.25 356.285156 523.621094 356.28125 C 521.007812 356.277344 518.390625 356.273438 515.773438 356.269531 C 512.035156 356.265625 508.296875 356.261719 504.558594 356.257812 C 494.898438 356.246094 485.234375 356.238281 475.570312 356.238281 L 474.121094 356.238281 C 457.164062 356.234375 440.207031 356.296875 423.246094 356.457031 L 421.652344 356.472656 C 415.613281 356.53125 409.574219 356.597656 403.535156 356.667969 L 403.535156 386.667969 L 611.449219 386.667969 L 614.785156 380 C 617.523438 375.988281 617.523438 375.988281 618.835938 374.722656 L 619.367188 374.167969 L 619.367188 373.332031 L 620.121094 372.96875 C 621.113281 372.480469 621.113281 372.480469 622.28125 371.667969 L 622.28125 370.832031 L 623.167969 370.496094 C 624.4375 369.972656 625.644531 369.375 626.867188 368.75 C 631 366.640625 635.265625 365.597656 639.949219 365.726562 C 645.980469 366.316406 651.257812 367.613281 656.320312 371.046875 C 657.285156 371.726562 657.285156 371.726562 658.53125 372.082031 L 658.53125 372.917969 C 659 373.3125 659.476562 373.695312 659.964844 374.0625 C 663.050781 376.667969 665.191406 380.539062 666.867188 384.167969 C 668.398438 388.433594 669.332031 392.769531 668.765625 397.304688 C 667.625 403.183594 665.453125 408.625 661.515625 413.171875 C 658.332031 416.722656 654.640625 419.464844 650.199219 421.25 C 644.015625 423.171875 637.789062 423.453125 631.449219 422.082031 C 629.710938 421.515625 628.089844 420.804688 626.449219 420 L 625.25 419.425781 C 621.023438 417.269531 617.890625 414.308594 615.199219 410.417969 L 614.546875 409.167969 L 613.949219 408.332031 C 612 407.867188 610.0625 407.859375 608.070312 407.863281 L 607.058594 407.863281 C 605.933594 407.859375 604.808594 407.863281 603.683594 407.863281 L 601.242188 407.863281 C 599.007812 407.859375 596.769531 407.859375 594.53125 407.863281 C 592.121094 407.863281 589.707031 407.863281 587.296875 407.859375 C 582.566406 407.859375 577.835938 407.859375 573.109375 407.859375 C 569.261719 407.859375 565.417969 407.863281 561.570312 407.859375 L 557.410156 407.859375 C 546.992188 407.859375 536.574219 407.859375 526.15625 407.863281 C 516.917969 407.863281 507.679688 407.863281 498.4375 407.863281 C 486.941406 407.855469 475.441406 407.851562 463.945312 407.859375 L 462.289062 407.859375 C 458.453125 407.863281 454.621094 407.859375 450.785156 407.859375 C 446.101562 407.859375 441.417969 407.859375 436.730469 407.859375 C 434.34375 407.863281 431.957031 407.863281 429.570312 407.859375 C 427.378906 407.859375 425.1875 407.859375 422.996094 407.863281 C 422.210938 407.863281 421.421875 407.863281 420.636719 407.863281 C 414.925781 407.855469 409.238281 408.046875 403.53125 408.332031 L 403.535156 409.144531 L 403.535156 410.214844 L 403.539062 411.273438 C 403.546875 415.933594 403.550781 420.59375 403.554688 425.253906 C 403.558594 427.875 403.558594 430.492188 403.5625 433.113281 C 403.570312 435.652344 403.570312 438.1875 403.574219 440.722656 C 403.574219 441.683594 403.574219 442.644531 403.578125 443.601562 C 403.578125 444.964844 403.582031 446.328125 403.582031 447.6875 L 403.585938 448.84375 C 403.578125 453.546875 403.3125 458.207031 403.117188 462.917969 L 440.617188 462.917969 L 440.199219 459.167969 C 440.546875 456.46875 441.8125 454 443.253906 451.722656 C 444.324219 450.359375 445.273438 449.851562 446.867188 449.167969 C 448.855469 448.375 450.664062 448.207031 452.785156 448.199219 L 453.796875 448.1875 C 454.894531 448.175781 455.992188 448.167969 457.089844 448.164062 L 458.234375 448.15625 C 460.234375 448.144531 462.234375 448.136719 464.234375 448.132812 C 466.289062 448.128906 468.339844 448.109375 470.394531 448.085938 C 471.984375 448.070312 473.574219 448.066406 475.164062 448.0625 C 475.917969 448.0625 476.675781 448.054688 477.433594 448.042969 C 484.054688 447.953125 484.054688 447.953125 487.289062 449.519531 C 488.875 450.421875 490.175781 451.296875 491.113281 452.890625 C 492.699219 456.9375 492.40625 461.574219 492.394531 465.851562 L 492.394531 467.875 C 492.398438 469.28125 492.394531 470.6875 492.390625 472.09375 C 492.386719 473.886719 492.390625 475.679688 492.394531 477.472656 C 492.398438 478.863281 492.398438 480.253906 492.394531 481.648438 C 492.394531 482.308594 492.394531 482.96875 492.398438 483.628906 C 492.414062 491.519531 492.414062 491.519531 491 494.179688 C 490.167969 495.515625 489.253906 496.421875 487.90625 497.238281 C 485.664062 498.28125 483.621094 498.402344 481.175781 498.433594 L 480.21875 498.449219 C 479.183594 498.464844 478.144531 498.480469 477.109375 498.496094 L 474.933594 498.527344 C 473.414062 498.546875 471.894531 498.570312 470.375 498.589844 C 468.4375 498.613281 466.496094 498.644531 464.558594 498.675781 C 463.0625 498.699219 461.5625 498.722656 460.066406 498.742188 C 459.351562 498.75 458.636719 498.761719 457.921875 498.773438 C 448.898438 498.929688 448.898438 498.929688 444.78125 496.667969 L 443.949219 496.667969 L 443.949219 495.832031 L 443.117188 495.832031 L 443.117188 495 L 442.28125 495 L 442.152344 494.296875 C 441.914062 493.292969 441.914062 493.292969 441.226562 492.445312 C 440.429688 490.886719 440.492188 489.515625 440.5625 487.8125 C 440.597656 486.734375 440.613281 485.660156 440.617188 484.582031 L 440.199219 484.167969 C 439.0625 484.128906 437.925781 484.113281 436.785156 484.121094 L 435.703125 484.121094 C 434.515625 484.121094 433.328125 484.121094 432.136719 484.125 L 429.675781 484.128906 C 427.507812 484.128906 425.339844 484.132812 423.175781 484.136719 C 420.964844 484.140625 418.753906 484.144531 416.546875 484.144531 C 412.207031 484.152344 407.871094 484.15625 403.53125 484.167969 L 403.535156 485.175781 C 403.546875 489.835938 403.554688 494.492188 403.558594 499.148438 C 403.574219 512.351562 403.417969 525.546875 403.117188 538.75 C 407.890625 538.757812 412.664062 538.765625 417.4375 538.773438 C 419.652344 538.773438 421.871094 538.777344 424.085938 538.78125 C 426.222656 538.785156 428.359375 538.789062 430.496094 538.789062 C 431.3125 538.789062 432.132812 538.792969 432.949219 538.792969 C 434.089844 538.796875 435.230469 538.796875 436.371094 538.796875 L 437.40625 538.800781 C 438.199219 538.800781 438.992188 538.777344 439.78125 538.75 L 440.199219 538.332031 C 440.320312 536.988281 440.386719 535.640625 440.457031 534.289062 C 440.609375 532.976562 440.949219 532.042969 441.449219 530.832031 L 441.449219 529.167969 L 442.28125 529.167969 C 442.972656 528.382812 443.59375 527.558594 444.226562 526.726562 C 445.6875 525.386719 447.027344 524.691406 448.949219 524.167969 C 451.59375 523.855469 454.277344 523.953125 456.929688 523.976562 L 459.269531 523.976562 C 460.898438 523.976562 462.527344 523.984375 464.15625 523.996094 C 466.238281 524.007812 468.320312 524.011719 470.398438 524.011719 C 472.007812 524.011719 473.617188 524.015625 475.226562 524.023438 C 475.992188 524.027344 476.757812 524.027344 477.523438 524.027344 C 478.601562 524.03125 479.675781 524.035156 480.75 524.046875 L 481.695312 524.042969 C 483.917969 524.070312 485.964844 524.445312 488.117188 525 L 488.117188 525.832031 L 488.949219 525.832031 L 488.949219 526.667969 L 489.9375 527.628906 C 491.046875 528.765625 491.457031 529.328125 491.867188 530.832031 C 492.359375 534.242188 492.351562 537.640625 492.351562 541.078125 L 492.355469 542.960938 C 492.359375 544.273438 492.359375 545.585938 492.359375 546.898438 C 492.359375 548.566406 492.367188 550.238281 492.375 551.90625 C 492.378906 553.203125 492.378906 554.5 492.378906 555.792969 C 492.378906 556.410156 492.378906 557.023438 492.382812 557.640625 C 492.425781 566.070312 492.425781 566.070312 491.027344 568.71875 C 490.632812 569.300781 490.210938 569.859375 489.78125 570.417969 L 489.78125 571.25 L 488.949219 571.25 L 488.949219 572.082031 L 488.089844 572.421875 C 487.230469 572.773438 486.382812 573.152344 485.550781 573.5625 C 483.878906 574.277344 482.269531 574.347656 480.472656 574.339844 L 479.457031 574.351562 C 478.355469 574.363281 477.253906 574.363281 476.15625 574.363281 L 473.84375 574.371094 C 472.230469 574.378906 470.617188 574.378906 469.003906 574.375 C 466.945312 574.371094 464.890625 574.386719 462.832031 574.402344 C 461.238281 574.414062 459.648438 574.414062 458.058594 574.414062 C 457.300781 574.414062 456.539062 574.417969 455.78125 574.425781 C 449.140625 574.484375 449.140625 574.484375 446.441406 573.167969 C 444.246094 571.851562 442.8125 570.335938 441.527344 568.125 C 440.453125 565.902344 440.457031 563.929688 440.582031 561.496094 L 440.617188 560.417969 L 440.199219 560 C 439.035156 559.964844 437.871094 559.949219 436.707031 559.960938 L 435.550781 559.964844 C 429.667969 559.996094 423.789062 560.101562 417.90625 560.195312 C 416.28125 560.21875 414.65625 560.242188 413.03125 560.269531 C 409.863281 560.316406 406.699219 560.367188 403.53125 560.417969 C 403.523438 570.871094 403.515625 581.324219 403.511719 591.777344 C 403.507812 596.628906 403.507812 601.484375 403.5 606.335938 C 403.496094 610.570312 403.496094 614.800781 403.492188 619.03125 C 403.492188 621.273438 403.492188 623.511719 403.488281 625.75 C 403.484375 627.863281 403.484375 629.972656 403.484375 632.082031 C 403.484375 632.855469 403.484375 633.628906 403.484375 634.398438 C 403.433594 642.453125 403.433594 642.453125 405.015625 650.3125 L 405.347656 651.386719 C 407.5 658.101562 411.183594 664.859375 416.03125 670 L 416.867188 670 L 417.199219 670.75 C 417.71875 671.699219 418.238281 672.28125 419.027344 673.015625 L 419.804688 673.738281 L 420.617188 674.480469 L 421.425781 675.238281 C 422.453125 676.195312 422.453125 676.195312 423.53125 677.082031 L 424.367188 677.082031 L 424.367188 677.917969 C 425.230469 678.539062 426.117188 679.128906 427.023438 679.6875 L 427.835938 680.195312 C 428.375 680.535156 428.917969 680.871094 429.460938 681.207031 C 430.070312 681.585938 430.675781 681.976562 431.28125 682.367188 C 440.40625 688.148438 451.683594 690.78125 462.386719 691.296875 C 464.324219 691.351562 466.261719 691.351562 468.199219 691.335938 C 469.195312 691.328125 470.191406 691.328125 471.1875 691.328125 L 473.117188 691.320312 L 474.003906 691.320312 C 475.824219 691.300781 477.570312 691.117188 479.367188 690.832031 C 480.214844 690.773438 481.066406 690.722656 481.917969 690.675781 C 484.328125 690.503906 486.574219 690.058594 488.914062 689.476562 C 490.046875 689.203125 491.15625 689.003906 492.308594 688.828125 C 501.742188 687.160156 510.710938 683.109375 518.949219 678.332031 L 518.949219 677.5 L 519.886719 677.34375 C 520.949219 677.101562 521.753906 676.777344 522.699219 676.25 L 522.699219 675.417969 L 523.617188 675.285156 C 524.890625 674.972656 525.707031 674.511719 526.789062 673.777344 L 527.785156 673.113281 L 528.53125 672.5 L 528.53125 671.667969 L 529.285156 671.519531 C 530.773438 671.082031 531.796875 669.996094 532.933594 668.984375 L 533.707031 668.308594 C 534.484375 667.625 535.257812 666.9375 536.03125 666.25 L 537.433594 665.019531 C 539.0625 663.589844 539.0625 663.589844 540.617188 662.082031 L 540.617188 661.25 L 541.449219 661.25 C 542.207031 660.441406 542.207031 660.441406 542.960938 659.425781 L 543.757812 658.402344 L 544.367188 657.5 L 544.367188 656.667969 L 545.199219 656.667969 C 546.324219 655.507812 546.324219 655.507812 547.28125 654.167969 L 547.28125 652.917969 L 548.117188 652.917969 C 548.875 652.027344 548.875 652.027344 549.625 650.910156 L 550.425781 649.785156 L 551.03125 648.75 L 551.03125 647.5 L 551.867188 647.5 C 552.417969 646.574219 552.964844 645.644531 553.507812 644.714844 C 553.664062 644.453125 553.816406 644.191406 553.976562 643.921875 C 554.816406 642.480469 555.414062 641.269531 555.617188 639.582031 L 556.449219 639.582031 C 558.871094 634.601562 560.882812 629.613281 562.417969 624.277344 C 562.6875 623.375 563 622.5 563.324219 621.613281 C 564.832031 617.101562 565.328125 612.40625 565.527344 607.675781 C 565.605469 606.460938 565.757812 605.351562 566.03125 604.167969 L 566.867188 604.167969 C 567.570312 603.382812 568.203125 602.558594 568.847656 601.726562 C 570.144531 600.488281 571.433594 599.773438 573.117188 599.167969 C 574.832031 598.769531 576.554688 598.519531 578.296875 598.28125 C 579.203125 598.152344 580.105469 598.019531 581.003906 597.886719 L 582.304688 597.699219 C 583.984375 597.425781 585.625 597.054688 587.28125 596.667969 L 588.453125 596.457031 C 589.367188 596.292969 589.367188 596.292969 590.117188 595.851562 C 591.167969 595.351562 592.15625 595.136719 593.296875 594.894531 C 595.785156 594.304688 597.953125 593.335938 600.246094 592.226562 C 601.449219 591.667969 601.449219 591.667969 602.933594 591.25 C 607.09375 590.039062 610.984375 587.488281 614.78125 585.417969 L 614.78125 584.582031 L 615.453125 584.472656 C 621.949219 582.480469 627.652344 575.964844 632.332031 571.308594 L 633.117188 570.417969 L 633.117188 569.582031 L 633.949219 569.582031 C 636.257812 567.191406 638.160156 564.414062 640.015625 561.667969 C 640.203125 561.398438 640.386719 561.128906 640.574219 560.851562 C 641.027344 560.164062 641.449219 559.457031 641.867188 558.75 L 641.867188 557.5 L 642.699219 557.5 C 643.328125 556.355469 643.953125 555.210938 644.574219 554.0625 L 645.117188 553.082031 L 645.628906 552.128906 L 646.105469 551.257812 C 646.554688 550.3125 646.554688 550.3125 646.449219 548.75 L 647.28125 548.75 C 649.511719 543.796875 651.203125 538.882812 652.363281 533.566406 C 652.558594 532.707031 652.765625 531.847656 652.996094 530.996094 C 653.839844 527.859375 654.257812 524.824219 654.46875 521.589844 L 654.574219 520.09375 C 654.816406 516.25 654.703125 512.582031 654.367188 508.75 C 654.339844 508.160156 654.320312 507.570312 654.300781 506.980469 C 654.144531 502.367188 653.328125 498.132812 651.867188 493.75 C 651.742188 493.179688 651.617188 492.605469 651.5 492.03125 C 651.136719 490.339844 650.640625 488.730469 650.066406 487.101562 C 649.789062 486.269531 649.566406 485.4375 649.367188 484.582031 L 648.53125 484.582031 L 648.375 483.75 C 648.234375 483.070312 648.085938 482.390625 647.886719 481.722656 C 647.320312 479.742188 647.199219 478.296875 647.699219 476.25 C 648.496094 474.066406 649.398438 472.097656 651.03125 470.417969 C 651.546875 470.035156 652.070312 469.660156 652.59375 469.296875 L 653.949219 468.332031 L 653.949219 467.5 L 654.789062 467.265625 C 656.582031 466.402344 657.855469 465.113281 659.289062 463.75 L 660.164062 462.941406 C 661.257812 461.917969 661.257812 461.917969 662.28125 460.832031 L 662.28125 460 L 663.53125 460 L 663.53125 459.167969 L 664.234375 458.90625 C 665.605469 458.09375 666.328125 457.109375 667.28125 455.832031 L 667.28125 455 L 668.117188 455 L 668.117188 454.167969 L 668.949219 454.167969 C 669.515625 453.546875 669.515625 453.546875 670.042969 452.761719 L 670.605469 451.96875 L 671.03125 451.25 L 671.03125 450.417969 L 671.867188 450.417969 C 672.625 449.527344 672.625 449.527344 673.375 448.410156 L 674.175781 447.285156 L 674.78125 446.25 L 674.78125 445 L 675.617188 445 C 676.167969 444.261719 676.167969 444.261719 676.710938 443.28125 L 677.371094 442.136719 L 678.117188 440.832031 C 678.402344 440.347656 678.691406 439.859375 678.976562 439.375 C 680.925781 436.066406 680.925781 436.066406 682.375 432.523438 C 682.980469 430.925781 683.820312 429.4375 684.617188 427.929688 C 685.25 426.554688 685.644531 425.210938 686.03125 423.75 L 686.421875 422.453125 C 687.421875 419.066406 688.234375 415.664062 688.972656 412.210938 C 689.203125 411.136719 689.457031 410.078125 689.734375 409.015625 C 690.550781 405.898438 690.804688 402.902344 690.914062 399.695312 C 690.996094 397.15625 690.996094 397.15625 691.449219 396.25 C 691.644531 392.421875 691.355469 388.582031 691.085938 384.765625 L 690.984375 383.21875 C 690.765625 380.039062 690.480469 376.867188 689.785156 373.75 L 689.367188 373.332031 C 689.089844 371.957031 688.847656 370.582031 688.613281 369.199219 C 688.324219 367.5625 687.957031 366.117188 687.285156 364.582031 C 686.828125 363.0625 686.402344 361.542969 686.035156 360 L 685.199219 360 L 685.136719 359.253906 C 684.964844 357.421875 684.761719 355.847656 683.949219 354.167969 L 683.117188 354.167969 L 683.011719 353.132812 C 682.625 351.316406 681.890625 349.863281 681.035156 348.230469 L 680.566406 347.320312 C 680.167969 346.546875 679.769531 345.773438 679.367188 345 L 678.949219 344.167969 L 678.117188 344.167969 L 678.035156 343.316406 C 677.574219 341.625 676.671875 340.4375 675.640625 339.035156 L 675.066406 338.222656 C 674.578125 337.546875 674.058594 336.894531 673.53125 336.25 L 672.699219 336.25 L 672.59375 335.566406 C 672.175781 334.242188 671.460938 333.304688 670.640625 332.1875 L 669.746094 330.945312 L 668.949219 330 L 668.117188 330 L 668.117188 329.167969 L 667.28125 329.167969 L 666.867188 327.917969 L 666.03125 327.917969 L 665.746094 326.980469 C 665.253906 325.765625 665.253906 325.765625 664.15625 324.871094 L 663.117188 324.167969 L 662.28125 324.167969 L 661.449219 322.5 L 660.617188 322.5 L 660.617188 321.667969 C 659.925781 321.078125 659.925781 321.078125 659.054688 320.496094 C 657.652344 319.464844 656.539062 318.585938 655.617188 317.082031 C 654.8125 315.152344 654.367188 313.425781 654.367188 311.328125 C 654.726562 309.332031 655.578125 307.484375 656.335938 305.609375 C 657.027344 303.726562 657.445312 301.832031 657.835938 299.867188 C 658.117188 298.75 658.117188 298.75 658.949219 297.5 C 660.460938 291.828125 660.746094 286.144531 660.703125 280.308594 C 660.695312 279.226562 660.695312 278.144531 660.695312 277.0625 C 660.691406 276.371094 660.6875 275.683594 660.6875 274.992188 L 660.683594 274.015625 C 660.703125 272.371094 660.703125 272.371094 660.199219 270.832031 C 660.105469 270.054688 660.027344 269.273438 659.964844 268.488281 L 659.859375 267.222656 L 659.78125 266.25 L 658.949219 266.25 L 659.078125 264.636719 C 659.085938 262.386719 658.585938 260.378906 657.984375 258.230469 L 657.71875 257.257812 C 657.183594 255.421875 656.507812 253.785156 655.617188 252.082031 L 655.226562 250.675781 C 654.890625 249.535156 654.574219 248.679688 654.039062 247.640625 C 653.890625 247.347656 653.742188 247.054688 653.585938 246.753906 L 653.117188 245.832031 C 652.816406 245.226562 652.515625 244.617188 652.21875 244.011719 C 648.808594 237.21875 644.476562 231.089844 638.949219 225.832031 L 638.117188 225.832031 L 638.117188 225 L 637.28125 225 L 636.867188 223.75 L 636.03125 223.75 L 636.03125 222.917969 C 635.371094 222.308594 634.679688 221.734375 633.976562 221.171875 L 632.714844 220.164062 L 631.449219 219.167969 L 630.355469 218.273438 L 629.367188 217.472656 L 628.480469 216.757812 L 627.699219 216.25 L 626.449219 216.25 L 626.03125 215 C 624.992188 214.234375 624.992188 214.234375 623.6875 213.488281 L 622.972656 213.0625 C 622.460938 212.757812 621.945312 212.453125 621.433594 212.152344 C 620.582031 211.644531 619.738281 211.132812 618.894531 210.617188 L 617.203125 209.582031 L 616.386719 209.082031 C 615.722656 208.679688 615.046875 208.292969 614.367188 207.917969 L 613.53125 207.917969 L 613.53125 207.082031 L 612.699219 207.082031 L 612.359375 205.964844 C 611.941406 204.605469 611.941406 204.605469 611.21875 203.640625 C 610.453125 202.1875 610.476562 201.140625 610.511719 199.503906 C 610.519531 198.992188 610.523438 198.480469 610.53125 197.949219 C 610.617188 196.667969 610.617188 196.667969 611.03125 195.832031 C 611.117188 195.140625 611.183594 194.445312 611.242188 193.75 C 611.402344 191.757812 611.402344 191.757812 611.867188 190.832031 C 611.90625 189.648438 611.925781 188.476562 611.917969 187.292969 L 611.921875 186.300781 C 611.964844 184.554688 611.964844 184.554688 611.449219 182.917969 C 611.375 182.222656 611.316406 181.527344 611.265625 180.832031 C 611.109375 178.941406 610.820312 177.136719 610.425781 175.285156 C 610.070312 173.53125 609.820312 171.761719 609.558594 169.992188 C 609.386719 168.878906 609.183594 167.769531 608.949219 166.667969 L 608.117188 166.667969 L 608.171875 165.398438 C 608.113281 163.65625 607.773438 162.371094 607.203125 160.730469 L 606.925781 159.914062 C 606.078125 157.515625 605.066406 155.203125 603.949219 152.917969 L 603.117188 152.917969 L 603.0625 151.925781 C 602.550781 149.800781 601.503906 148.003906 600.199219 146.25 L 599.367188 146.25 L 599.289062 145.390625 C 598.839844 143.769531 598.007812 142.484375 596.867188 141.25 L 596.03125 141.25 L 595.617188 139.582031 L 594.78125 139.582031 L 593.949219 137.5 L 593.117188 137.5 C 593.007812 137.261719 592.898438 137.023438 592.789062 136.777344 C 592.246094 135.761719 591.625 134.960938 590.875 134.089844 L 590.136719 133.210938 C 589.417969 132.441406 589.417969 132.441406 588.460938 132.238281 L 587.699219 132.082031 L 586.867188 130.417969 C 586.078125 129.632812 585.261719 129.003906 584.367188 128.332031 L 583.53125 128.332031 L 583.53125 127.5 C 582.722656 126.871094 581.886719 126.273438 581.03125 125.703125 L 580.285156 125.195312 C 579.566406 124.710938 578.839844 124.230469 578.117188 123.75 L 577.058594 123.039062 C 576.316406 122.558594 575.550781 122.109375 574.78125 121.667969 L 573.53125 121.667969 L 573.53125 120.832031 C 559.074219 113.460938 544.585938 110.828125 528.484375 110.609375 C 526.144531 110.550781 523.988281 110.199219 521.867188 109.167969 C 519.976562 107.523438 518.972656 105.660156 518.117188 103.332031 L 517.28125 103.332031 L 517.335938 101.953125 L 517.28125 100.417969 L 516.449219 99.167969 C 516.261719 98.605469 516.089844 98.042969 515.929688 97.472656 C 515.1875 95.175781 513.996094 93.273438 512.699219 91.25 L 511.992188 90.097656 C 510.605469 87.863281 509.132812 85.75 507.484375 83.699219 C 506.96875 83.046875 506.496094 82.359375 506.035156 81.667969 L 505.199219 81.667969 L 504.785156 80.417969 L 503.949219 80.417969 L 503.949219 79.582031 L 503.117188 79.582031 L 502.804688 78.847656 C 502.207031 77.777344 501.542969 77.152344 500.617188 76.355469 L 499.730469 75.578125 L 498.949219 75 L 498.117188 75 L 498.117188 74.167969 C 497.519531 73.617188 497.519531 73.617188 496.726562 73.078125 L 495.832031 72.441406 L 494.859375 71.769531 L 493.875 71.082031 C 491.476562 69.433594 489.054688 67.964844 486.449219 66.667969 L 484.851562 65.835938 C 474.078125 60.277344 462.449219 58.167969 450.363281 58.652344 C 440.570312 59.339844 431.289062 62.566406 423.117188 67.917969 M 486.867188 167.082031 C 485.386719 167.925781 484.445312 169.070312 483.375 170.390625 C 482.371094 172.316406 482.472656 174.382812 482.539062 176.503906 C 482.71875 178.089844 483.039062 179.25 483.867188 180.605469 C 484.96875 182.027344 486.199219 182.777344 487.75 183.644531 C 489.75 184.445312 491.835938 184.359375 493.949219 184.167969 C 495.410156 183.808594 495.410156 183.808594 496.449219 183.332031 L 496.449219 182.5 L 497.152344 182.449219 C 498.234375 182.113281 498.234375 182.113281 499.210938 180.988281 C 500.261719 179.628906 500.710938 178.371094 501.03125 176.667969 C 501.242188 174.527344 501.070312 173.21875 500.199219 171.25 C 499.929688 170.691406 499.652344 170.136719 499.367188 169.582031 L 498.53125 169.582031 L 498.53125 168.75 C 496.984375 167.402344 495.632812 166.550781 493.636719 166.042969 C 491.199219 165.652344 489.121094 166.136719 486.867188 167.082031 M 518.582031 187.472656 C 517.9375 188.429688 517.394531 189.394531 516.867188 190.417969 C 516.5625 190.882812 516.25 191.339844 515.929688 191.796875 C 515.335938 192.710938 514.824219 193.597656 514.367188 194.582031 L 513.53125 194.582031 L 513.53125 195.417969 L 512.699219 195.417969 C 512.214844 195.902344 511.730469 196.390625 511.25 196.878906 C 507.890625 200.164062 503.421875 202.277344 498.914062 203.5 C 493.539062 204.605469 488.476562 204.9375 483.132812 203.394531 C 479.890625 202.28125 476.722656 200.859375 473.949219 198.828125 L 472.699219 197.917969 L 471.867188 197.917969 L 471.53125 197.175781 C 471.015625 196.214844 470.453125 195.554688 469.703125 194.765625 C 467.703125 192.53125 465.738281 189.949219 464.78125 187.082031 L 403.117188 187.082031 L 403.53125 192.082031 C 403.578125 193.472656 403.609375 194.855469 403.617188 196.246094 L 403.632812 197.40625 C 403.644531 198.652344 403.65625 199.894531 403.664062 201.140625 L 403.691406 203.753906 C 403.714844 206.03125 403.734375 208.304688 403.753906 210.582031 C 403.777344 212.914062 403.796875 215.242188 403.820312 217.570312 C 403.867188 222.132812 403.910156 226.691406 403.949219 231.25 C 422.929688 231.265625 441.910156 231.273438 460.894531 231.273438 L 462.101562 231.273438 C 468.566406 231.273438 475.027344 231.277344 481.492188 231.28125 C 488.121094 231.285156 494.746094 231.289062 501.371094 231.289062 C 505.464844 231.289062 509.558594 231.292969 513.652344 231.296875 C 516.453125 231.296875 519.257812 231.296875 522.058594 231.296875 C 523.679688 231.296875 525.296875 231.296875 526.917969 231.300781 C 528.667969 231.300781 530.417969 231.300781 532.171875 231.300781 L 533.738281 231.304688 L 535.148438 231.300781 L 536.375 231.300781 L 537.28125 231.25 L 537.699219 230.832031 C 537.738281 230.265625 537.75 229.691406 537.75 229.121094 L 537.75 228.003906 L 537.746094 226.769531 L 537.746094 225.476562 C 537.746094 224.058594 537.742188 222.640625 537.742188 221.222656 L 537.738281 218.28125 C 537.738281 215.695312 537.734375 213.109375 537.730469 210.523438 C 537.726562 207.886719 537.722656 205.25 537.71875 202.613281 C 537.714844 197.4375 537.710938 192.261719 537.699219 187.082031 C 535.136719 186.929688 532.570312 186.804688 530.003906 186.699219 C 529.132812 186.660156 528.257812 186.613281 527.386719 186.5625 C 526.132812 186.488281 524.878906 186.4375 523.621094 186.390625 L 522.445312 186.304688 C 520.28125 186.253906 520.28125 186.253906 518.582031 187.472656 M 575.074219 282.300781 C 573.324219 283.703125 572.042969 285.105469 571.109375 287.160156 C 570.6875 288.558594 570.609375 289.519531 570.773438 290.976562 C 571.261719 292.882812 571.816406 294.4375 573.085938 295.960938 C 574.359375 297.117188 575.675781 298.117188 577.28125 298.75 C 579.574219 299.015625 581.972656 299.164062 584.167969 298.371094 C 585.996094 297.28125 587.328125 295.90625 588.53125 294.167969 C 589.40625 292.332031 589.542969 290.5625 589.5 288.554688 C 589.289062 286.890625 588.648438 285.539062 587.699219 284.167969 C 587.101562 283.449219 587.101562 283.449219 586.449219 282.917969 L 585.617188 282.917969 L 585.617188 282.082031 C 581.984375 280.699219 578.539062 280.003906 575.074219 282.300781 M 634.371094 387.207031 C 632.902344 388.449219 631.921875 389.972656 631.035156 391.667969 C 630.464844 393.375 630.414062 394.882812 630.617188 396.667969 C 631.105469 398.289062 631.832031 399.535156 633.015625 400.75 C 633.976562 401.59375 634.886719 402.34375 636.035156 402.917969 C 638.992188 403.367188 641.527344 403.480469 644.367188 402.5 L 645.617188 401.667969 L 645.617188 400.832031 L 646.449219 400.832031 L 646.449219 400 L 647.285156 400 C 648.097656 398.605469 648.523438 397.578125 648.699219 395.960938 L 648.691406 394.347656 L 648.699219 392.734375 C 648.613281 391.25 648.613281 391.25 647.949219 390.015625 L 647.28125 389.167969 L 646.449219 389.167969 L 646.164062 388.410156 C 645.65625 387.429688 645.65625 387.429688 644.625 386.796875 C 642.617188 385.792969 640.710938 385.664062 638.484375 385.695312 C 636.875 385.878906 635.738281 386.351562 634.371094 387.207031 M 459.78125 466.25 L 459.367188 466.667969 C 459.332031 467.652344 459.316406 468.636719 459.324219 469.625 L 459.328125 470.519531 C 459.328125 471.464844 459.335938 472.414062 459.339844 473.359375 C 459.34375 474 459.34375 474.640625 459.347656 475.28125 C 459.351562 476.855469 459.359375 478.425781 459.367188 480 C 461.203125 480.917969 463.695312 480.496094 465.734375 480.492188 C 466.65625 480.496094 467.574219 480.503906 468.492188 480.511719 C 469.074219 480.511719 469.65625 480.511719 470.238281 480.511719 L 471.847656 480.519531 L 473.117188 480.417969 L 473.949219 479.582031 C 474.066406 478.246094 474.066406 478.246094 474.03125 476.675781 L 474.027344 475.8125 C 474.023438 474.898438 474.011719 473.984375 474 473.074219 C 473.996094 472.453125 473.992188 471.835938 473.992188 471.21875 C 473.980469 469.699219 473.96875 468.183594 473.949219 466.667969 C 472.722656 466.050781 471.480469 466.191406 470.132812 466.195312 L 469.242188 466.191406 C 468.621094 466.191406 468 466.195312 467.378906 466.195312 C 466.425781 466.199219 465.472656 466.195312 464.519531 466.191406 C 463.917969 466.191406 463.3125 466.195312 462.710938 466.195312 L 461.84375 466.191406 C 461.15625 466.199219 460.46875 466.21875 459.78125 466.25 M 459.78125 541.667969 L 459.367188 542.082031 C 459.332031 543.070312 459.316406 544.054688 459.324219 545.039062 L 459.328125 546.679688 L 459.339844 548.777344 L 459.367188 555.417969 L 473.949219 555.417969 L 473.949219 542.5 C 472 541.71875 471.0625 541.5625 469.035156 541.570312 L 467.410156 541.574219 L 466.570312 541.582031 C 465.71875 541.589844 464.867188 541.589844 464.011719 541.589844 C 461.898438 541.59375 461.898438 541.59375 459.785156 541.667969 " fill-opacity="1" fill-rule="nonzero"/><path fill="#d9fc67" d="M 537.75 438.265625 L 539.703125 438.261719 C 541.449219 438.253906 543.199219 438.25 544.949219 438.25 C 546.046875 438.25 547.140625 438.246094 548.238281 438.246094 C 551.675781 438.238281 555.109375 438.234375 558.546875 438.234375 C 562.5 438.230469 566.453125 438.226562 570.40625 438.214844 C 573.472656 438.203125 576.542969 438.199219 579.609375 438.199219 C 581.4375 438.199219 583.265625 438.195312 585.089844 438.1875 C 586.808594 438.183594 588.523438 438.179688 590.242188 438.183594 C 590.871094 438.183594 591.496094 438.183594 592.125 438.179688 C 595.507812 438.15625 598.710938 438.207031 601.867188 439.582031 C 603.140625 440.4375 603.140625 440.4375 604.132812 441.378906 L 605.144531 442.3125 C 606.140625 443.457031 606.730469 444.417969 607.285156 445.832031 C 607.59375 448.363281 607.726562 451.105469 606.945312 453.558594 C 606.441406 454.4375 605.90625 455.101562 605.199219 455.832031 L 604.328125 456.742188 C 602.8125 458.199219 601.574219 459.273438 599.507812 459.828125 C 597.25 460.222656 594.941406 460.128906 592.65625 460.132812 L 590.871094 460.144531 C 589.257812 460.15625 587.648438 460.164062 586.039062 460.167969 C 584.351562 460.175781 582.667969 460.1875 580.980469 460.195312 C 577.792969 460.214844 574.601562 460.230469 571.414062 460.246094 C 567.785156 460.261719 564.152344 460.28125 560.519531 460.304688 C 553.050781 460.347656 545.585938 460.382812 538.117188 460.417969 L 538.117188 461.957031 C 538.125 475.484375 538.132812 489.011719 538.140625 502.539062 L 538.140625 503.433594 C 538.140625 508.214844 538.144531 512.992188 538.148438 517.773438 C 538.152344 522.675781 538.15625 527.578125 538.15625 532.480469 C 538.15625 535.238281 538.15625 537.992188 538.160156 540.746094 C 538.164062 543.335938 538.164062 545.929688 538.164062 548.519531 C 538.164062 549.472656 538.164062 550.425781 538.167969 551.375 C 538.167969 552.671875 538.167969 553.96875 538.167969 555.265625 L 538.171875 556.421875 L 538.167969 557.472656 L 538.167969 558.378906 C 538.117188 559.167969 538.117188 559.167969 537.699219 560.417969 L 538.6875 560.46875 C 540.816406 560.980469 542.613281 562.027344 544.367188 563.332031 L 544.367188 564.167969 L 545.296875 564.472656 C 547.441406 565.453125 548.761719 567.339844 550.199219 569.167969 C 553.285156 573.585938 555.695312 578.183594 556.355469 583.585938 C 556.695312 588.765625 555.898438 593.929688 553.949219 598.75 C 552.914062 600.847656 551.605469 602.71875 550.199219 604.582031 L 549.5 605.539062 C 547.007812 608.648438 543.167969 611.773438 539.515625 613.417969 C 534.121094 615.25 528.238281 616.574219 522.5625 615.519531 C 519.265625 614.851562 516.089844 614.125 513.117188 612.5 L 511.875 611.839844 C 510.757812 611.234375 509.640625 610.621094 508.53125 610 L 508.53125 609.167969 L 507.832031 608.90625 C 506.503906 608.117188 505.738281 607.035156 504.78125 605.832031 C 504.367188 605.414062 503.953125 604.996094 503.53125 604.582031 C 501.433594 602.140625 500.523438 599.390625 499.464844 596.398438 C 499.089844 595.082031 499.089844 595.082031 498.53125 594.582031 C 497.269531 589.230469 497.550781 584.117188 498.53125 578.75 L 499.367188 578.75 L 499.601562 577.1875 C 500.421875 573.554688 502.5625 570.523438 504.992188 567.761719 C 507.550781 565.050781 510.785156 561.730469 514.367188 560.417969 C 515.0625 560.40625 515.753906 560.402344 516.449219 560.417969 L 516.449219 559.699219 C 516.433594 543.980469 516.417969 528.257812 516.402344 512.535156 L 516.402344 511.519531 C 516.398438 506.085938 516.394531 500.652344 516.386719 495.222656 C 516.378906 489.644531 516.375 484.070312 516.371094 478.496094 C 516.371094 475.058594 516.367188 471.617188 516.359375 468.179688 C 516.355469 465.820312 516.355469 463.460938 516.355469 461.101562 C 516.355469 459.738281 516.355469 458.378906 516.351562 457.019531 C 516.347656 455.542969 516.347656 454.066406 516.347656 452.589844 L 516.34375 451.292969 C 516.351562 448.910156 516.601562 446.867188 517.28125 444.582031 L 518.117188 444.582031 L 518.402344 443.671875 C 519.09375 442.191406 519.757812 441.453125 521.03125 440.417969 C 526 437.597656 532.21875 438.269531 537.75 438.265625 M 521.03125 580 C 519.839844 581.414062 518.941406 582.933594 518.117188 584.582031 C 517.851562 586.710938 517.816406 588.722656 518.527344 590.765625 C 519.335938 592.28125 520.179688 593.40625 521.535156 594.472656 C 523.429688 595.5625 525.15625 595.976562 527.335938 596.066406 C 529.265625 595.976562 530.777344 595.652344 532.445312 594.667969 C 533.449219 593.917969 534.105469 593.136719 534.78125 592.082031 L 535.511719 591.042969 C 536.316406 588.785156 536.128906 586.539062 536.03125 584.167969 L 535.199219 584.167969 L 535.09375 583.253906 C 534.828125 582.0625 534.828125 582.0625 534.183594 581.015625 C 532.632812 579.539062 531.003906 578.886719 528.949219 578.332031 C 526.097656 577.902344 523.40625 578.285156 521.03125 580 " fill-opacity="1" fill-rule="nonzero"/></svg>