<svg xmlns="http://www.w3.org/2000/svg" xmlns:xlink="http://www.w3.org/1999/xlink" width="256" zoomAndPan="magnify" viewBox="0 0 192 191.999996" height="256" preserveAspectRatio="xMidYMid meet" version="1.0"><defs><clipPath id="bbe5b1fe00"><path d="M 48.910156 86.5625 L 67.660156 86.5625 L 67.660156 105.3125 L 48.910156 105.3125 Z M 48.910156 86.5625 " clip-rule="nonzero"/></clipPath><clipPath id="a0151aa0b6"><path d="M 114.675781 73.386719 L 159.675781 73.386719 L 159.675781 118.386719 L 114.675781 118.386719 Z M 114.675781 73.386719 " clip-rule="nonzero"/></clipPath></defs><path fill="#ffffff" d="M 68 16 C 52.535156 16 40 28.535156 40 44 C 40 45.441406 40.109375 46.855469 40.320312 48.238281 C 26.59375 50.042969 16 61.785156 16 76 C 16 83.835938 19.21875 90.917969 24.402344 96 C 19.21875 101.082031 16 108.164062 16 116 C 16 127.214844 22.589844 136.882812 32.109375 141.355469 C 32.035156 142.226562 32 143.109375 32 144 C 32 161.671875 46.328125 176 64 176 C 73.558594 176 82.136719 171.808594 88 165.167969 L 88 24.402344 C 82.917969 19.21875 75.835938 16 68 16 Z M 104 24.402344 L 104 165.167969 C 109.863281 171.808594 118.441406 176 128 176 C 145.671875 176 160 161.671875 160 144 C 160 143.109375 159.964844 142.226562 159.890625 141.355469 C 169.410156 136.882812 176 127.214844 176 116 C 176 108.164062 172.78125 101.082031 167.597656 96 C 172.78125 90.917969 176 83.835938 176 76 C 176 61.785156 165.40625 50.042969 151.679688 48.238281 C 151.890625 46.855469 152 45.441406 152 44 C 152 28.535156 139.464844 16 124 16 C 116.164062 16 109.082031 19.21875 104 24.402344 Z M 104 24.402344 " fill-opacity="1" fill-rule="nonzero"/><g clip-path="url(#bbe5b1fe00)"><path fill="#000000" d="M 67.660156 95.953125 C 62.628906 96.257812 58.605469 100.28125 58.300781 105.3125 L 58.265625 105.3125 C 57.960938 100.28125 53.9375 96.257812 48.910156 95.953125 L 48.910156 95.917969 C 53.9375 95.613281 57.960938 91.589844 58.265625 86.5625 L 58.300781 86.5625 C 58.605469 91.589844 62.628906 95.613281 67.660156 95.917969 Z M 67.660156 95.953125 " fill-opacity="1" fill-rule="nonzero"/></g><g clip-path="url(#a0151aa0b6)"><path fill="#000000" d="M 159.675781 95.933594 C 147.605469 96.660156 137.945312 106.320312 137.21875 118.386719 L 137.128906 118.386719 C 136.402344 106.320312 126.742188 96.660156 114.675781 95.933594 L 114.675781 95.84375 C 126.742188 95.117188 136.402344 85.457031 137.128906 73.386719 L 137.21875 73.386719 C 137.945312 85.457031 147.605469 95.117188 159.675781 95.84375 Z M 159.675781 95.933594 " fill-opacity="1" fill-rule="nonzero"/></g></svg>